<svg xmlns="http://www.w3.org/2000/svg"><defs><symbol id="aboutUs-symbol" fill-rule="evenodd"><g id="Group-4" transform="translate(116)"><path d="M91.03.381c-6.658.582-13.27 1.405-19.852 2.576-5.895 1.053-11.872 2.035-17.6 3.818-5.18 1.612-10.207 3.55-14.896 6.307-4.002 2.351-7.888 4.932-11.74 7.525-2.346 1.577-4.624 3.281-6.755 5.14-1.656 1.452-3.212 3.042-4.816 4.557-1.586 1.506-3.199 2.98-4.764 4.51-1.603 1.558-3.171 3.15-4.845 4.633a55.2 55.2 0 0 1-2.078 1.452C2.032 41.991.8 43.409.266 45.364a7.537 7.537 0 0 0 .75 5.761c1.958 3.369 6.791 4.932 10.175 2.682 2.152-1.427 4.32-2.947 6.188-4.738 1.63-1.564 3.233-3.158 4.895-4.696 2.938-2.724 5.884-5.49 8.95-8.071 2.842-2.053 5.828-3.902 8.803-5.75 3.372-2.096 6.741-4.142 10.287-5.917 4.767-1.827 9.631-3.157 14.636-4.213 5.234-1.102 10.529-1.897 15.813-2.693 6.386-.749 12.763-1.301 19.198-1.314 3.44-.009 6.89-.004 10.325.172 1.766.092 3.554.097 5.311.281 1.446.153 2.89.305 4.334.454 8.237 1.416 16.505 3.204 24.304 6.265 2.909 1.31 5.7 2.828 8.354 4.621a137.765 137.765 0 0 1 4.686 3.307 775.68 775.68 0 0 1 7.321 5.495 48.924 48.924 0 0 1 5.072 4.827c1.704 1.88 3.375 3.801 5.079 5.69a216.995 216.995 0 0 1 4.768 5.451c1.871 2.23 3.721 4.268 6.184 5.884 3.063 2.003 7.406 1.229 9.913-1.286 2.573-2.585 3.173-6.804 1.28-9.961l-.206-.339a8.402 8.402 0 0 0-1.635-1.965c-.679-.697-1.46-1.303-2.094-2.047-.934-1.088-1.841-2.193-2.78-3.276-1.748-2.026-3.54-4.012-5.324-6.006-1.928-2.158-3.786-4.382-5.864-6.4-.986-.955-2.111-1.783-3.19-2.633-1.723-1.36-3.498-2.66-5.268-3.968-2.389-1.76-4.764-3.535-7.157-5.297-4.635-3.408-9.755-5.936-15.07-8.081-3.554-1.435-7.297-2.48-11.005-3.417-2.87-.723-5.766-1.52-8.686-2.008-3.768-.635-7.51-1.19-11.306-1.577a99.296 99.296 0 0 0-8.104-.48C106.463.063 103.715 0 100.966 0c-3.318 0-6.636.09-9.936.381" id="Fill-160"/><path d="M183.358 54.215c-.024.188-.05.378-.076.566l.076-.565v-.001M2.335 45.063c-.812 1.568-1.48 3.288-1.308 5.108.114 1.212.145 1.97.558 2.962.36.864.658 1.626 1.048 2.428a67.512 67.512 0 0 1 1.47 3.266c.98 2.292 2.055 4.535 3.174 6.757 2.44 4.843 5.355 9.44 8.498 13.848 3.384 4.743 7.532 8.995 11.702 13.046 1.782 1.736 3.486 3.565 5.303 5.262 2.344 2.187 4.775 4.236 7.488 5.963 1.928 1.23 4.095 2.062 6.215 2.927 2.502 1.086 5 2.19 7.507 3.271 3.103 1.335 6.22 2.6 9.45 3.61 4.381 1.361 8.985 2.044 13.555 2.366 5.329.374 10.644-.18 15.947-.648 3.187-.282 6.378-.731 9.547-1.172 3.244-.454 6.457-.925 9.675-1.53 3.27-.612 6.457-1.437 9.683-2.265 2.774-.714 5.482-1.727 8.207-2.61 2.666-.863 5.33-1.886 7.933-2.922 3.858-1.533 7.725-3.027 11.513-4.733 1.927-.868 3.859-1.732 5.786-2.6 4.288-1.93 8.4-4.39 12.369-6.907 8.257-5.24 15.986-11.702 22.185-19.313 1.838-2.253 3.687-4.491 5.398-6.845 1.356-1.873 2.44-4.055 2.994-6.302.409-1.649.531-3.385.738-5.073.237-1.917-.966-4.183-2.261-5.484a7.742 7.742 0 0 0-5.465-2.273 7.724 7.724 0 0 0-5.46 2.273c-.404.525-.809 1.045-1.208 1.57a7.727 7.727 0 0 0-1.057 3.9c-.085.472-.182.935-.302 1.396-.515.944-1.104 1.831-1.734 2.707-1.376 1.689-2.75 3.38-4.185 5.025a85.315 85.315 0 0 1-10.873 10.404c-5.922 4.45-12.266 8.21-18.908 11.488-2.235 1.103-4.55 2.07-6.836 3.076-3.089 1.235-6.173 2.477-9.296 3.623-3.955 1.45-7.914 2.785-11.922 4.077-1.514.49-3.064.846-4.605 1.239-1.755.449-3.485.9-5.263 1.225-1.914.352-3.832.775-5.762 1.036-1.483.2-2.967.404-4.45.606l.27-.038c-8.202.94-16.49 1.992-24.742 1.14-4.51-.741-8.801-2.076-13.05-3.772a682.916 682.916 0 0 1-5.826-2.578c-1.076-.48-2.155-.948-3.235-1.41-2.177-.936-4.213-1.988-6.14-3.33-3.114-2.65-5.9-5.699-8.775-8.605-2.551-2.587-4.952-5.366-7.295-8.145A105.296 105.296 0 0 1 19.447 52.79c-.621-1.503-1.242-3.006-1.889-4.499a8.23 8.23 0 0 0-5.966-7.009A7.97 7.97 0 0 0 9.477 41c-2.864 0-5.798 1.462-7.142 4.063" id="Fill-162"/><path d="M131.587 21.217c.032.072.063.147.094.221-.031-.074-.062-.149-.094-.221m8.052-13.06l.17.131-.17-.131m-.154-.119l-.01-.008.024.018-.014-.01m-9.827 0a6.986 6.986 0 0 0-2.036 4.918l.25 1.85a6.922 6.922 0 0 0 1.786 3.072c.203.256.41.513.615.768.341.521.627 1.062.89 1.619.89 2.42 1.409 4.895 1.811 7.431.174 1.628.298 3.25.35 4.889.056 1.658-.033 3.293-.174 4.934-.426 2.396-.983 4.714-1.823 7.006-1.732 3.72-4.015 7.173-6.414 10.495-2.747 3.299-5.558 6.638-8.836 9.418a26.702 26.702 0 0 1-3.575 2.059c-2.68 1.022-5.44 1.774-8.234 2.416-3.002.686-6.003 1.464-9.04 1.986-.541.037-1.076.052-1.616.046-1.943-.456-3.815-1.22-5.661-1.992-2.446-1.044-4.861-2.102-7.178-3.426a75.05 75.05 0 0 1-6.113-3.914c-2.512-2.195-4.723-4.657-6.861-7.217a21.651 21.651 0 0 1-1.644-2.676c-.807-2.207-1.385-4.524-1.808-6.835-.146-1.763-.112-3.496.026-5.267a49.957 49.957 0 0 1 2.45-9.169c.823-1.698 1.719-3.324 2.785-4.886a24.483 24.483 0 0 1 2.81-2.799c1.598-1.1 3.239-2.077 4.951-3.01 3.379-1.846 4.436-6.426 2.535-9.68-1.988-3.395-6.287-4.384-9.67-2.539-3.7 2.026-7.227 4.319-10.115 7.447-3.001 3.245-5.103 7.188-6.711 11.269a50.821 50.821 0 0 0-2.534 8.57c-.355 1.736-.568 3.513-.743 5.27-.34 3.353.017 6.673.677 9.967.804 4.007 1.918 8.019 4.186 11.47 1.81 2.757 4.081 5.295 6.284 7.744 2.237 2.485 4.91 4.528 7.672 6.391 2.215 1.492 4.504 3.023 6.92 4.179 3.077 1.465 6.219 2.812 9.373 4.094 1.831.744 3.667 1.448 5.624 1.767 1.424.237 2.696.333 4.124.285 1.22-.044 2.439-.293 3.645-.464 1.044-.144 2.071-.39 3.101-.599 2.854-.582 5.694-1.287 8.522-1.978 3.888-.953 7.69-2.318 11.238-4.182 1.848-.97 3.49-2.358 5.098-3.662 1.63-1.325 3.042-2.917 4.456-4.466a82.377 82.377 0 0 0 2.876-3.286c2.215-2.72 4.392-5.464 6.24-8.455 2.101-3.408 3.958-6.812 5.405-10.57 1.32-3.43 1.922-7.188 2.258-10.828.48-5.127-.126-10.272-.97-15.328-.332-1.992-.786-3.977-1.511-5.859a49.86 49.86 0 0 0-1.237-2.992c-.542-1.168-1.202-2.105-2.045-3.11-1.008-1.21-2.359-2.083-3.636-2.988a74.2 74.2 0 0 0-.353-.271 6.896 6.896 0 0 0-3.504-.95c-1.84 0-3.618.74-4.916 2.038" id="Fill-164"/><path d="M99.606 45.1l-.082.195c-.09.214-.18.429-.272.644v-.003l.354-.836m.255-.345c-.178.138-.355.275-.533.41.171-.144.35-.28.533-.41m3.167-.04a.817.817 0 0 1 .048.015c.183.125.357.267.52.422-.19-.144-.378-.29-.568-.437m-1.127-.261c.252.051.502.105.752.165.014.525.002 1.045-.03 1.569-.05.236-.107.47-.17.702-.207.205-.418.402-.637.593a28.571 28.571 0 0 1-3.766 2.244 6.761 6.761 0 0 0 .947-2.048 7.09 7.09 0 0 0 .25-1.612c.234-.449.484-.882.758-1.306.087-.089.175-.176.265-.262.095-.026.19-.052.284-.076.45-.007.898.006 1.347.031m.357-.163l.138.059a7.352 7.352 0 0 1-.138-.059m-.092-.987c.113.235.214.474.304.716l-.304-.716m-.421-.009c.234.263.448.539.64.829l-.64-.829M95.25 31.04c-1.79.731-3.225 1.527-4.686 2.818-.927.822-1.734 1.751-2.469 2.742a4.408 4.408 0 0 0-.595.573c-.852.986-1.695 1.986-2.465 3.038-.803 1.103-1.308 2.198-1.82 3.48a17.03 17.03 0 0 0-1.213 6.625c.048 2.467.865 4.661 1.92 6.847.527 1.081 1.405 2.05 2.248 2.886 1.378 1.372 3.238 2.324 5.055 2.965.965.338 1.904.567 2.912.701.856.169 1.722.264 2.59.286a14.17 14.17 0 0 0 2.595-.277c2.643-.372 5.272-1.446 7.559-2.813 1.183-.71 2.334-1.42 3.434-2.26 1.035-.791 1.99-1.51 2.852-2.475 1.281-1.437 2.03-2.839 2.729-4.614.7-1.775.93-3.721 1.06-5.612.06-.879.06-1.714-.022-2.593a14.995 14.995 0 0 0-.5-2.913c-.295-1.246-.973-2.458-1.586-3.58a128.717 128.717 0 0 0-1.76-2.284 11.284 11.284 0 0 0-2.195-1.857c-1.112-.844-2.313-1.315-3.638-1.805-1.512-.562-3.395-.697-4.964-.844-.5-.048-1.007-.073-1.518-.073-1.884 0-3.803.338-5.523 1.04" id="Fill-166"/></g><path d="M86.632 116.251c-1.84.508-3.234 1.687-4.25 3.266-1.126 1.755-2.345 3.445-3.543 5.146-6.669 8.393-13.454 16.718-19.625 25.49-6.242 8.875-12.504 17.735-18.852 26.536-3.496 4.847-6.867 9.769-10.19 14.734-1.462 2.183-2.966 4.348-4.356 6.574-.672 1.074-1.309 2.168-1.954 3.258-.335.562-.67 1.121-1.007 1.68-.219.359-.434.722-.649 1.089-.808 1.391-1.094 2.817-1.195 4.403-.199 3.035 2.25 5.883 5.066 6.656a6.974 6.974 0 0 0 3.672 0c1.582-.434 3.414-1.625 4.125-3.172.332-.722.848-1.359 1.274-2.027.312-.492.597-1.004.89-1.508.637-1.098 1.27-2.191 1.946-3.266 1.312-2.086 2.742-4.105 4.121-6.152 3.027-4.477 6.047-8.957 9.23-13.324 6.563-9.012 13.02-18.09 19.43-27.211 2.563-3.653 5.26-7.214 7.912-10.801 2.191-2.772 4.382-5.543 6.576-8.312 3.266-4.118 6.563-8.192 9.406-12.618 2.098-3.261.684-7.832-2.55-9.722a7.148 7.148 0 0 0-5.477-.719" id="Fill-170"/><path d="M308.318 121.901c-3.176 1.859-4.266 6.047-2.418 9.227 4.758 8.199 8.707 16.871 12.79 25.418a700.422 700.422 0 0 1 6.296 13.57c1.604 3.552 3.116 7.143 4.635 10.73 1.723 4.277 3.476 8.545 5.037 12.887.824 2.289 1.637 4.578 2.45 6.867a96.66 96.66 0 0 0 1.147 3.067c.598 1.523 1.4 3.937 2.754 5.023l.01-.012a6.483 6.483 0 0 0 2.908 1.711c3.426.942 7.231-1.129 8.13-4.617a7.892 7.892 0 0 0 .253-1.828 6.627 6.627 0 0 0-.91-3.359c-.109-.258-.233-.51-.356-.762-.757-1.941-1.404-3.926-2.08-5.895a290.907 290.907 0 0 0-2.75-7.609c-2.095-5.59-4.435-11.082-6.767-16.574-4.274-10.086-9.05-19.938-13.824-29.793-2.563-5.285-5.125-10.551-8.075-15.633-1.234-2.126-3.534-3.319-5.87-3.319-1.152 0-2.313.29-3.36.901" id="Fill-168"/><path d="M185.362 164.072c-3.176 1.245-4.266 4.05-2.418 6.179 4.758 5.49 8.707 11.297 12.789 17.02a422.154 422.154 0 0 1 6.297 9.087c1.604 2.378 3.116 4.783 4.635 7.185 1.723 2.864 3.476 5.722 5.037 8.63a854.163 854.163 0 0 1 2.449 4.598c.367.688.746 1.373 1.148 2.053.598 1.02 1.399 2.637 2.754 3.364a.088.088 0 0 0 .01-.008c.782.532 1.77.936 2.908 1.146 3.426.63 7.23-.756 8.129-3.092.157-.398.239-.808.254-1.224-.004-.806-.308-1.554-.91-2.25-.11-.172-.233-.34-.356-.51-.757-1.3-1.404-2.629-2.081-3.947a159.218 159.218 0 0 0-2.75-5.095c-2.094-3.743-4.434-7.42-6.766-11.098-4.274-6.754-9.051-13.351-13.824-19.95-2.563-3.54-5.125-7.066-8.075-10.469-1.234-1.423-3.534-2.222-5.87-2.222-1.152 0-2.313.194-3.36.603" transform="rotate(27 205.699 193.473)"/><g id="standing_S_0002" transform="translate(305 260)"><path d="M30.397 5.007c-1.282 1.139-2.444 2.673-3.586 3.89-2.101 2.246-3.22 4.71-4.296 7.556-1.207 3.176-.582 7.05.058 10.24.538 2.7 1.884 5.442 3.082 7.877.705 1.424 1.97 3.125 2.996 4.226 1.119 1.203 2.457 2.473 3.845 3.308 1.563.947 3.221 1.578 4.958 2.12 1.911.594 5.198.646 7.109.059 3.614-1.108 17.904-3.295 19.634-14.907.539-3.616 3.669-14.75-2.368-21.232C55.793 1.662 51.228 0 44.563 0c-6.665 0-10.77 1.992-14.166 5.007z" id="Fill-239"/><path d="M54.305 36.773c-1.839.753-3.44 2.585-4.405 5.038-.94 2.38-1.383 5.763-.746 8.445 2.145 8.99 3.742 18.53 6.685 27.058.036.692.115 1.384.242 2.078.502 2.713 1.72 5.061 3.35 6.48 3.378 2.94 8.042 1.263 9.98-3.887.786-2.09 1.273-4.321 1.273-6.751 0-2.822-.81-5.364-1.706-7.772-.314-.849-.59-1.72-.856-2.6-1.725-6.74-3.123-13.642-4.742-20.435-.657-2.77-1.64-5.03-3.391-6.553-1.132-.984-2.43-1.492-3.734-1.492-.655 0-1.313.128-1.95.391" id="Fill-241" transform="rotate(-20 59.77 61.849)"/><path d="M27.222 51.948a66.561 66.561 0 0 1-2.234 6.216c-.804 1.376-1.514 4.558-2.37 5.866-.912 1.39-1.961 6.425-4.215 11.161-.976 2.05-2.394 5.858-1.473 8.278.593 1.542.972 1.531 1.974 2.443 1.043.935 2.165 1.397 3.369 1.404 1.649-.262 2.012-.312 3.48-1.418.292-.222.563-.47.827-.747.926-.955 1.788-2.047 2.65-3.118 1.186-1.48 2.201-3.203 3.221-4.938 1.292-2.197 2.473-4.613 3.55-7.106.658-1.247 1.301-2.51 1.943-3.78.346-.683 1.935-5.36 1.94-7.199 0-.11 1.69-7.869 2.461-11.631 1.1-5.375-1.258-11.253-4.684-12.705a4.475 4.475 0 0 0-1.765-.371c-2.95 0-5.566 3.103-6.486 7.584-.691 3.376-1.367 6.754-2.188 10.061z" id="Fill-243" transform="scale(-1 1) rotate(-64 0 108.22)"/><path d="M44.608 54.272c-3.794 4.627-5.292 15.489-2.947 23.443a114.268 114.268 0 0 1 1.672 6.22c.47 2.644.882 5.312 1.298 8.01.337 2.204.596 4.443.946 6.636.508 3.185 1.304 6.429 2.46 8.828 1.216 2.553 2.499 3.451 4.048 4.769 1.444.807 2.886.807 4.33 0 2.035-1.167 3.804-4.007 4.872-7.815 1.63-5.82 1.37-13.367-.465-18.694-.36-2.57-.719-5.141-1.11-7.7-.947-6.164-2.252-12.052-3.871-17.545-1.579-5.345-4.342-8.45-7.177-8.45-1.377 0-2.772.732-4.056 2.298" id="Fill-245"/><path d="M30.731 76.663c-.66 5.854-1.246 11.844-2.25 17.516-1.11 6.234 0 15.577 3.441 16.787 3.546 1.247 8.405 1.89 10.257-5.331 1.64-6.403 2.467-13.215 3.28-20.158.757-6.463 1.428-12.966 2.12-19.447.438-4.103.317-8.052-.773-11.745-1.009-3.411-2.674-5.952-4.597-7.002a4.007 4.007 0 0 0-1.93-.507c-3.36 0-6.798 4.344-7.52 11.15-.666 6.244-1.321 12.506-2.028 18.737z" id="Fill-247"/></g><g id="standing_S_0001" transform="matrix(-1 0 0 1 300 260)"><path d="M44.462 23.952l-1.066.137c.353-.06.71-.105 1.066-.137M35.557 2.348c-2.188 1.216-4.203 2.668-6.079 4.304-1.768 1.544-3.255 3.585-4.306 5.65-1.48 2.92-2.148 5.726-2.172 8.998.191 1.398.39 2.79.58 4.18a23.99 23.99 0 0 0 1.194 3.457c1.115 2.675 2.26 5.29 3.836 7.744 1.742 2.722 4.21 4.671 6.955 6.405 1.703 1.07 5.06 1.957 7.073 1.912 1.848-.047 3.647-.268 5.43-.741a31.72 31.72 0 0 0 3.866-1.652c2.188-1.063 3.844-3.141 5.276-4.946 1.879-2.37 2.985-5.023 4.075-7.804 1.073-2.746 1.328-5.781 1.687-8.654a11.79 11.79 0 0 0-.088-2.486c-.159-1.789-.422-3.517-.964-5.221-.823-2.57-2.349-4.807-4.316-6.548C55.6 2.883 51.26.074 46.324.002L45.959 0c-3.5 0-7.334.644-10.402 2.348" id="Fill-253"/><path d="M46.696 58.035l-.171.028c-1.466.01-2.835.605-4.106 1.778l-1.65 2.034c-1.006 1.63-1.7 3.544-2.09 5.744-.337 1.356-.486 2.84-.675 4.26-.247 1.805-.499 3.6-.75 5.396-.482 3.446-.315 6.844.813 9.94.747 2.039 1.838 3.711 3.122 4.832.185 1.726.344 3.464.495 5.198.157 2.39.26 4.747.293 7.151.109 7.412 3.785 13.604 8.504 13.604 2.244 0 4.427-1.447 6.013-3.985 1.649-2.639 2.388-5.955 2.49-9.619.109-3.675-.366-7.376-.705-10.986a232.12 232.12 0 0 0-.995-8.723c-.356-2.664-.7-5.322-1.163-7.942-.727-4.088-1.15-8.458-2.376-12.241C52.6 60.979 49.732 58 47.161 58c-.157 0-.311.012-.465.035" id="Fill-263"/><path d="M30.819 61.657c1.055-2.928 3.645-4.922 5.845-5.468 2.404-.596 4.952.231 7.025 2.274 2.074 2.042 3.557 5.188 4.089 8.677.358 2.387.283 4.712-.227 6.983-.339 1.001-.68 2.015-1.017 3.026-4.235 11.725-8.321 23.574-12.59 35.272-1.057 2.89-3.589 4.852-5.766 5.392-2.374.59-4.882-.23-6.927-2.242-2.044-2.016-3.51-5.12-4.033-8.557-.352-2.355-.279-4.642.226-6.875 4.212-13.014 8.783-25.76 13.375-38.482z" id="Fill-265" transform="rotate(-3 32.5 87)"/><path d="M37.586 38.565c-2.432 1.408-4.8 4.062-5.348 6.879-1.641 8.447-3.549 16.835-5.84 25.136-1.65 5.988 1.985 12.364 8.037 14.011 6.193 1.688 12.313-2.026 14.159-7.952 2.563-8.226 4.417-16.628 6.066-25.077.61-3.134.5-6.041-1.173-8.866A11.655 11.655 0 0 0 43.456 37c-2.05 0-4.089.533-5.87 1.565" id="Fill-267"/><path d="M34.592 43.431c-5.507 1.612-10.993 3.303-16.11 5.75-3.378 1.61-6.42 3.758-9.412 5.865-1.734 1.216-3.338 2.493-4.844 3.936-4.155 3.994-4.445 10.172 0 14.128 4.316 3.84 11.574 3.866 15.882 0a51.932 51.932 0 0 1 2.713-2.235c3.281-2.121 6.635-4.047 10.32-5.59 2.474-.835 4.99-1.578 7.502-2.316 2.87-.842 5.255-2.296 6.805-4.654 1.543-2.338 1.956-5.193 1.146-7.81C47.284 46.255 42.57 43 37.634 43a10.82 10.82 0 0 0-3.042.431" id="Fill-269" transform="rotate(-2 25 59.5)"/><path d="M43.675 46.68c-4.7 3.398-5.097 9.57 0 12.923a576.106 576.106 0 0 1 7.71 5.169c2.56 1.743 5.213 3.477 8.248 4.786 5.955 2.556 14.282 1.658 18.707-2.247.647-.61 1.303-1.217 1.95-1.827 1.139-1.412 1.702-2.936 1.71-4.571 0-2.388-1.327-4.707-3.66-6.4-2.407-1.737-5.75-2.635-9.068-2.622-2.605-1.714-5.13-3.508-7.727-5.211C59.025 45.02 56.083 44 52.61 44c-3.34 0-6.579.97-8.936 2.68" id="Fill-271" transform="rotate(5 61 57.5)"/></g><path d="M30.397 5.007c-1.282 1.139-2.444 2.673-3.586 3.89-2.101 2.246-3.22 4.71-4.296 7.556-1.207 3.176-.582 7.05.058 10.24.538 2.7 1.884 5.442 3.082 7.877.705 1.424 1.97 3.125 2.996 4.226 1.119 1.203 2.457 2.473 3.845 3.308 1.563.947 3.221 1.578 4.958 2.12 1.911.594 5.198.646 7.109.059 3.614-1.108 17.904-3.295 19.634-14.907.539-3.616 3.669-14.75-2.368-21.232C55.793 1.662 51.228 0 44.563 0c-6.665 0-10.77 1.992-14.166 5.007z" transform="translate(108 248)"/><path d="M54.305 36.773c-1.839.753-3.44 2.585-4.405 5.038-.94 2.38-1.383 5.763-.746 8.445 2.145 8.99 3.742 18.53 6.685 27.058.036.692.115 1.384.242 2.078.502 2.713 1.72 5.061 3.35 6.48 3.378 2.94 8.042 1.263 9.98-3.887.786-2.09 1.273-4.321 1.273-6.751 0-2.822-.81-5.364-1.706-7.772-.314-.849-.59-1.72-.856-2.6-1.725-6.74-3.123-13.642-4.742-20.435-.657-2.77-1.64-5.03-3.391-6.553-1.132-.984-2.43-1.492-3.734-1.492-.655 0-1.313.128-1.95.391" transform="rotate(-20 817.009 -120.4)"/><path d="M27.222 51.948a66.561 66.561 0 0 1-2.234 6.216c-.804 1.376-1.514 4.558-2.37 5.866-.912 1.39-1.961 6.425-4.215 11.161-.976 2.05-2.394 5.858-1.473 8.278.593 1.542.972 1.531 1.974 2.443 1.043.935 2.165 1.397 3.369 1.404 1.649-.262 2.012-.312 3.48-1.418.292-.222.563-.47.827-.747.926-.955 1.788-2.047 2.65-3.118 1.186-1.48 2.201-3.203 3.221-4.938 1.292-2.197 2.473-4.613 3.55-7.106.658-1.247 1.301-2.51 1.943-3.78.346-.683 1.935-5.36 1.94-7.199 0-.11 1.69-7.869 2.461-11.631 1.1-5.375-1.258-11.253-4.684-12.705a4.475 4.475 0 0 0-1.765-.371c-2.95 0-5.566 3.103-6.486 7.584-.691 3.376-1.367 6.754-2.188 10.061z" transform="scale(-1 1) rotate(-64 144.441 318.637)"/><path d="M44.608 54.272c-3.794 4.627-5.292 15.489-2.947 23.443a114.268 114.268 0 0 1 1.672 6.22c.47 2.644.882 5.312 1.298 8.01.337 2.204.596 4.443.946 6.636.508 3.185 1.304 6.429 2.46 8.828 1.216 2.553 2.499 3.451 4.048 4.769 1.444.807 2.886.807 4.33 0 2.035-1.167 3.804-4.007 4.872-7.815 1.63-5.82 1.37-13.367-.465-18.694-.36-2.57-.719-5.141-1.11-7.7-.947-6.164-2.252-12.052-3.871-17.545-1.579-5.345-4.342-8.45-7.177-8.45-1.377 0-2.772.732-4.056 2.298" transform="translate(108 248)"/><path d="M30.731 76.663c-.66 5.854-1.246 11.844-2.25 17.516-1.11 6.234 0 15.577 3.441 16.787 3.546 1.247 8.405 1.89 10.257-5.331 1.64-6.403 2.467-13.215 3.28-20.158.757-6.463 1.428-12.966 2.12-19.447.438-4.103.317-8.052-.773-11.745-1.009-3.411-2.674-5.952-4.597-7.002a4.007 4.007 0 0 0-1.93-.507c-3.36 0-6.798 4.344-7.52 11.15-.666 6.244-1.321 12.506-2.028 18.737z" transform="translate(108 248)"/><g><path d="M44.462 23.952l-1.066.137c.353-.06.71-.105 1.066-.137M35.557 2.348c-2.188 1.216-4.203 2.668-6.079 4.304-1.768 1.544-3.255 3.585-4.306 5.65-1.48 2.92-2.148 5.726-2.172 8.998.191 1.398.39 2.79.58 4.18a23.99 23.99 0 0 0 1.194 3.457c1.115 2.675 2.26 5.29 3.836 7.744 1.742 2.722 4.21 4.671 6.955 6.405 1.703 1.07 5.06 1.957 7.073 1.912 1.848-.047 3.647-.268 5.43-.741a31.72 31.72 0 0 0 3.866-1.652c2.188-1.063 3.844-3.141 5.276-4.946 1.879-2.37 2.985-5.023 4.075-7.804 1.073-2.746 1.328-5.781 1.687-8.654a11.79 11.79 0 0 0-.088-2.486c-.159-1.789-.422-3.517-.964-5.221-.823-2.57-2.349-4.807-4.316-6.548C55.6 2.883 51.26.074 46.324.002L45.959 0c-3.5 0-7.334.644-10.402 2.348M46.696 58.035l-.171.028c-1.466.01-2.835.605-4.106 1.778l-1.65 2.034c-1.006 1.63-1.7 3.544-2.09 5.744-.337 1.356-.486 2.84-.675 4.26-.247 1.805-.499 3.6-.75 5.396-.482 3.446-.315 6.844.813 9.94.747 2.039 1.838 3.711 3.122 4.832.185 1.726.344 3.464.495 5.198.157 2.39.26 4.747.293 7.151.109 7.412 3.785 13.604 8.504 13.604 2.244 0 4.427-1.447 6.013-3.985 1.649-2.639 2.388-5.955 2.49-9.619.109-3.675-.366-7.376-.705-10.986a232.12 232.12 0 0 0-.995-8.723c-.356-2.664-.7-5.322-1.163-7.942-.727-4.088-1.15-8.458-2.376-12.241C52.6 60.979 49.732 58 47.161 58c-.157 0-.311.012-.465.035" transform="translate(0 254)"/><path d="M30.819 61.657c1.055-2.928 3.645-4.922 5.845-5.468 2.404-.596 4.952.231 7.025 2.274 2.074 2.042 3.557 5.188 4.089 8.677.358 2.387.283 4.712-.227 6.983-.339 1.001-.68 2.015-1.017 3.026-4.235 11.725-8.321 23.574-12.59 35.272-1.057 2.89-3.589 4.852-5.766 5.392-2.374.59-4.882-.23-6.927-2.242-2.044-2.016-3.51-5.12-4.033-8.557-.352-2.355-.279-4.642.226-6.875 4.212-13.014 8.783-25.76 13.375-38.482z" transform="rotate(-3 4882.434 214)"/><path d="M37.586 38.565c-2.432 1.408-4.8 4.062-5.348 6.879-1.641 8.447-3.549 16.835-5.84 25.136-1.65 5.988 1.985 12.364 8.037 14.011 6.193 1.688 12.313-2.026 14.159-7.952 2.563-8.226 4.417-16.628 6.066-25.077.61-3.134.5-6.041-1.173-8.866A11.655 11.655 0 0 0 43.456 37c-2.05 0-4.089.533-5.87 1.565" transform="translate(0 254)"/><path d="M34.592 43.431c-5.507 1.612-10.993 3.303-16.11 5.75-3.378 1.61-6.42 3.758-9.412 5.865-1.734 1.216-3.338 2.493-4.844 3.936-4.155 3.994-4.445 10.172 0 14.128 4.316 3.84 11.574 3.866 15.882 0a51.932 51.932 0 0 1 2.713-2.235c3.281-2.121 6.635-4.047 10.32-5.59 2.474-.835 4.99-1.578 7.502-2.316 2.87-.842 5.255-2.296 6.805-4.654 1.543-2.338 1.956-5.193 1.146-7.81C47.284 46.255 42.57 43 37.634 43a10.82 10.82 0 0 0-3.042.431" transform="rotate(-2 7300.825 186.5)"/><path d="M43.675 46.68c-4.7 3.398-5.097 9.57 0 12.923a576.106 576.106 0 0 1 7.71 5.169c2.56 1.743 5.213 3.477 8.248 4.786 5.955 2.556 14.282 1.658 18.707-2.247.647-.61 1.303-1.217 1.95-1.827 1.139-1.412 1.702-2.936 1.71-4.571 0-2.388-1.327-4.707-3.66-6.4-2.407-1.737-5.75-2.635-9.068-2.622-2.605-1.714-5.13-3.508-7.727-5.211C59.025 45.02 56.083 44 52.61 44c-3.34 0-6.579.97-8.936 2.68" transform="rotate(5 -2847.778 184.5)"/></g></symbol><symbol id="news-symbol" fill="none" fill-rule="evenodd"><g id="megaphone"><path d="M344.198 24c1.641 4.09 2.855 7.141 3.641 9.156C367.946 84.686 378 127.565 378 161.79c0 36.234-5.634 74.272-16.901 114.116-90.285-52.765-153.428-75.462-189.429-68.089-36 7.373-36 13.647 0 18.824l18.196 67.001L136.3 318l-17.47-75.69-26.152-15.668v-18.824L11 195.126l11.463-95.333h167.403" id="Path-138"/><path d="M353.884 25.68l.15.356a.075.075 0 0 1-.006.01 19.896 19.896 0 0 0-.144-.366m-7.681.305c-.508 1.771.05 3.666.444 5.409.244 1.078.565 2.14.855 3.206.586 2.144 1.222 4.28 1.827 6.42 1.19 4.215 2.168 8.485 3.068 12.77 1.801 8.594 3.467 17.22 5.05 25.857a864.02 864.02 0 0 1 2.083 11.855c.516 3.061.92 6.142 1.351 9.215.51 4.132 1.036 8.263 1.483 12.405.515 4.764.98 9.525 1.412 14.298.215 2.379.242 4.789.363 7.175.1 2.002.11 4.01.149 6.012.09 4.863.106 9.726.128 14.59.039 8.776-.003 17.555-.052 26.331-.025 4.646-.218 9.28-.398 13.923-.078 2.025-.306 4.054-.46 6.073-.158 2.022-.28 4.051-.473 6.07-1.213 12.734-2.34 25.48-3.618 38.207l-.75 5.435c-.17 1.241-.45 2.474-.672 3.707a99.511 99.511 0 0 1-.653 3.243c-.945 4.39-2.161 8.708-2.89 13.141a5.306 5.306 0 0 0 0 2.803 5.308 5.308 0 0 0 2.428 3.152 5.317 5.317 0 0 0 4.068.53c1.193-.328 2.637-1.24 3.155-2.42.344-.78.704-1.554.926-2.376.135-.494.27-.99.408-1.48.287-1.034.599-2.06.911-3.088.589-1.945 1.27-3.878 1.762-5.852.264-1.05.582-2.103.791-3.165.264-1.33.525-2.661.788-3.99.438-2.221.705-4.475 1.03-6.716.659-4.552 1.057-9.142 1.46-13.726.434-4.982.89-9.96 1.353-14.937.393-4.218.783-8.433 1.178-12.65.222-2.357.363-4.723.547-7.086.138-1.794.318-3.592.386-5.392.106-2.866.212-5.73.315-8.597.073-2.002.032-4.013.035-6.018.006-4.706-.013-9.412-.03-14.118-.031-8.937-.089-17.874-.343-26.807-.051-1.917-.11-3.827-.232-5.744-.141-2.201-.202-4.423-.44-6.616-.54-4.998-1.126-9.98-1.74-14.968-.267-2.17-.566-4.334-.862-6.5-.319-2.296-.589-4.6-.952-6.889-.428-2.67-.853-5.338-1.277-8.01-.347-2.166-.794-4.32-1.203-6.477a689.662 689.662 0 0 0-5.255-25.135 610.366 610.366 0 0 0-2.1-8.97c-.627-2.584-1.261-5.18-2.055-7.72a285.212 285.212 0 0 0-2.628-7.925c-.495-1.43-.99-2.86-1.483-4.289-.46-1.337-.836-2.71-1.335-4.032l-.019-.077.055.132-.029-.19-.028.05c-.349-1.351-1.337-2.483-2.818-2.89a3.97 3.97 0 0 0-1.06-.144 4.145 4.145 0 0 0-3.954 2.985" id="Fill-1" stroke="#000" stroke-width="2" fill="#000"/><path d="M171.135 107.048l.189-.08c-.065.025-.128.05-.19.08m168.147-85.59c-.481.441-.972.868-1.462 1.297-1.319.989-2.649 1.96-4.038 2.843a221.309 221.309 0 0 1-6.42 3.909c-3.884 2.274-7.939 4.284-11.936 6.358-3.57 1.857-7.116 3.758-10.699 5.593a599.81 599.81 0 0 1-13.108 6.517c-8.242 3.969-16.492 7.92-24.704 11.948-4.052 1.988-8.11 3.97-12.164 5.95-3.48 1.703-7.023 3.268-10.55 4.87-3.857 1.487-7.706 2.983-11.613 4.34-4.607 1.599-9.215 3.208-13.818 4.813-8.383 2.927-16.598 6.304-24.887 9.474-4.064 1.554-8.283 2.806-12.483 3.946-4.396 1.194-8.888 2.214-13.107 3.936-.927.343-1.939.609-2.735 1.177-1.134.808-1.992 1.682-2.374 3.06a5.118 5.118 0 0 0 .52 3.944c1.353 2.291 4.733 3.402 7.069 1.838.113-.088.233-.162.363-.223l-.814.34a54.387 54.387 0 0 0 2.2-.986c1.664-.56 3.429-.872 5.13-1.296a726.823 726.823 0 0 0 6.733-1.733c1.96-.513 3.946-1.036 5.87-1.66 2.076-.676 4.177-1.29 6.224-2.038 8.34-3.056 16.607-6.32 25.015-9.19 4.556-1.555 9.115-3.11 13.67-4.661 4.274-1.452 8.473-3.07 12.689-4.673 2.51-.955 4.925-2.198 7.36-3.313 1.559-.71 3.117-1.407 4.65-2.166 4.11-2.032 8.218-4.062 12.32-6.106 8.29-4.132 16.618-8.184 24.933-12.267 2.04-1.004 4.115-1.96 6.13-3.01 2.307-1.207 4.61-2.412 6.914-3.615 3.567-1.864 7.094-3.795 10.648-5.683 4.424-2.358 8.867-4.676 13.153-7.28 4.409-2.675 8.769-5.577 12.556-9.081 2.038-1.885 1.918-5.269 0-7.173A4.987 4.987 0 0 0 342.973 20c-1.32 0-2.65.504-3.692 1.457" id="Fill-3" stroke="#000" stroke-width="2" fill="#000"/><path d="M343.336 268.165l-.83-.636.83.636m.307.236l-.152-.117c-.035-.027-.07-.054-.107-.08l.26.197M162.56 198.654a6.2 6.2 0 0 0-2.74 1.585 6.161 6.161 0 0 0-1.82 4.359c0 1.626.658 3.206 1.82 4.358 1.206 1.196 2.714 1.719 4.39 1.805 1.203.06 2.404.054 3.604.103 1.905.265 3.81.528 5.728.686a128.7 128.7 0 0 0 6.165.382c2.4.086 4.794.19 7.191.322 1.682.087 3.358.268 5.034.434 1.837.3 3.67.609 5.496.989 2.265.474 4.537.92 6.81 1.362 4.19.82 8.455 1.308 12.666 2.008 8.776 1.458 17.495 3.353 26.109 5.568 3.478.895 6.928 1.853 10.365 2.894 3.152.955 6.328 1.913 9.416 3.052 6.184 2.285 12.41 4.496 18.534 6.94 1.956.91 3.869 1.857 5.781 2.868 1.97 1.045 3.89 2.216 5.84 3.301 3.822 2.124 7.937 3.786 11.926 5.564A232.468 232.468 0 0 1 316.828 253c3.894 2.008 7.699 4.177 11.604 6.166 3.704 1.885 7.436 3.705 10.892 6.023.783.525 1.53 1.1 2.285 1.665.076.057.154.111.23.165l.666.51-.33-.256 1.316 1.011.329.252-.177-.135c.298.23.597.458.896.687l-.167-.128.71.542c1.848 1.417 3.818 2.652 5.789 3.893 2.243 1.413 4.775 2.403 7.233 3.372 1.287.509 3.052.12 4.198-.545a5.454 5.454 0 0 0 2.506-3.231 5.423 5.423 0 0 0-.549-4.164c-.285-.366-.568-.732-.853-1.095a5.462 5.462 0 0 0-2.374-1.383 30.91 30.91 0 0 1-3.146-1.616c-1.381-.817-2.689-1.716-4.006-2.628a203.052 203.052 0 0 1-4.376-3.534l-.309-.256a5.697 5.697 0 0 0-.831-.676c-1.588-1.279-3.22-2.506-4.919-3.63-1.54-1.019-3.141-1.92-4.762-2.802-3.848-2.09-7.696-4.173-11.505-6.328-3.864-2.187-7.747-4.355-11.755-6.271-4.124-1.97-8.263-3.9-12.39-5.864-3.95-1.88-7.644-4.25-11.505-6.296-4.159-2.203-8.607-3.897-13.016-5.536-4.168-1.557-8.315-3.17-12.477-4.747-4.095-1.553-8.337-2.772-12.525-4.048-4.053-1.239-8.196-2.25-12.314-3.244-4.287-1.031-8.587-2.073-12.916-2.935-8.825-1.758-17.74-2.98-26.55-4.814-3.25-.678-6.527-1.294-9.835-1.607-2.982-.28-5.953-.532-8.944-.669-3.139-.139-6.274-.299-9.41-.524-1.29-.093-2.576-.189-3.866-.284-.379-.028-.756-.04-1.133-.04-2.008 0-3.996.354-5.982.654" id="Fill-5" stroke="#000" stroke-width="2" fill="#000"/><path d="M150.721 88.848c-.332.43-.664.854-.996 1.282a6.197 6.197 0 0 0-.826 2.418c-.393 1.38-.741 2.702-.827 4.178-.062 1.107-.114 2.222-.022 3.333.22 2.753.488 5.523.95 8.25.343 2.03.656 4.065 1.05 6.088.63 3.216 1.287 6.427 1.784 9.667.241 2.196.32 4.41.24 6.619-.043 1.153-.088 2.306-.111 3.46-.04 2.153-.043 4.304-.02 6.456.052 4.625.12 9.246.105 13.87-.017 4.448-.089 8.893-.059 13.343.033 4.534.482 9.043 1.007 13.547.407 3.504.876 6.978 1.079 10.505.21 3.683.358 7.368.599 11.05.11 1.651.593 3.107 1.805 4.305a6.224 6.224 0 0 0 4.353 1.781c3.207 0 6.358-2.77 6.16-6.087a139.54 139.54 0 0 1-.265-6.685c-.03-2.21.01-4.445-.134-6.655a210.48 210.48 0 0 0-.596-7.349c-.199-2.006-.39-4.019-.486-6.035-.214-4.48-.237-8.95-.1-13.433.14-4.576.267-9.153.267-13.73-.003-5.867-.14-11.731.023-17.599.029-1.053.042-2.096.035-3.15-.022-2.515-.306-4.991-.664-7.474-.342-2.403-.763-4.793-1.183-7.179a302.447 302.447 0 0 1-1.267-7.856 335.475 335.475 0 0 1-.626-5.783 83.584 83.584 0 0 1-.248-3.259c-.029-.519-.02-1.04-.01-1.556.017-1.198-.126-2.344-.328-3.532a6.35 6.35 0 0 0-1.646-2.79 6.456 6.456 0 0 0-9.043 0" id="Fill-7" stroke="#000" stroke-width="2" fill="#000"/><path d="M12.065 185.317l.105.257a3.51 3.51 0 0 1-.105-.257m88.797-93.999c-4.594.09-9.183.183-13.775.45-4.336.254-8.671.53-13.01.768-4.816.26-9.536 1.298-14.295 1.996-2.163.315-4.326.617-6.483.957-2.176.344-4.294 1.029-6.367 1.752-3.984 1.382-8.011 2.574-12.03 3.846-4.076 1.289-7.994 3.188-11.792 5.142-1.429.732-2.765 1.607-4.226 2.281-2.11.98-4.131 2.4-5.82 3.985a18.119 18.119 0 0 0-2.832 3.442c-.587.916-.904 2.018-1.318 3.027-.464 1.128-.694 2.343-.903 3.535-.41 2.365-.423 4.705-.423 7.092 0 1.71-.045 3.393-.215 5.09-.381 2.404-.884 4.785-1.349 7.17-.436 2.22-.762 4.457-1.064 6.697a103.41 103.41 0 0 1-1.073 6.494c-.404 2.018-1.035 3.982-1.468 5.994-.595 2.786-1.006 5.575-1.317 8.412-.224 2.031-.324 4.081-.525 6.119-.202 2.063-.452 4.12-.552 6.193-.042.9-.028 1.802.017 2.7.019.407.038.819.08 1.223.07.711.157 1.389.266 2.112.182 1.189.563 2.137 1.047 3.249 1.125 2.584 3.59 4.403 5.983 5.72 1.103.607 2.368 1.153 3.537 1.58a36.868 36.868 0 0 0 5.467 1.527c1.817.364 3.634.733 5.461 1.051 1.945.34 3.919.533 5.884.768.71.113 1.419.238 2.123.396 1.02.227 1.972.706 2.952 1.057 2.102.752 4.278 1.198 6.47 1.606 4.573.852 9.267 1.231 13.914 1.25 4.226.016 8.456-.63 12.66-.97 2.057-.17 4.102-.28 6.169-.206 2.054.074 4.111.193 6.168.255 1.936.057 3.887-.02 5.637-.959 1.58-.848 2.547-2.69 2.547-4.454a5.154 5.154 0 0 0-1.42-3.562c-.472-.317-.93-.674-1.38-1.083a3.01 3.01 0 0 0-.975-.326c-3.54-.488-7.165-.46-10.734-.63-3.31-.154-6.604.1-9.902.383-3.505.295-7.002.597-10.52.607-3.105.013-6.207-.298-9.283-.68-2.42-.419-4.756-.923-7.075-1.74a33.162 33.162 0 0 0-2.372-.928c-.84-.286-1.74-.428-2.609-.591-1.762-.331-3.537-.579-5.29-.971-1.804-.405-3.586-.913-5.386-1.327a34.096 34.096 0 0 1-4.342-1.288 25.555 25.555 0 0 1-2.478-1.418c.029-.662.11-1.321.177-1.999.086-.893.183-1.79.29-2.686.315-2.276.63-4.55.892-6.839.218-1.925.372-3.86.583-5.788.58-3.239 1.423-6.401 2.234-9.592.804-3.188 1.16-6.5 1.57-9.77.462-2.862.977-5.71 1.474-8.563.541-3.136 1.05-6.354.955-9.544-.07-2.24-.227-4.49-.052-6.726.154-.787.346-1.552.587-2.31.087-.158.176-.31.269-.457.314-.35.635-.687.978-1.006.75-.517 1.518-1.018 2.333-1.427a26.11 26.11 0 0 0 2.836-1.674c1.025-.685 2.185-1.186 3.284-1.732a142.759 142.759 0 0 1 3.076-1.485c2.894-1.144 5.839-2.095 8.819-2.997 1.477-.447 2.95-.914 4.41-1.415 1.678-.578 3.348-1.221 5.056-1.697 1.56-.437 3.12-.826 4.723-1.07 1.74-.267 3.483-.494 5.227-.754 3.008-.444 6.001-.997 9.007-1.44 4.262-.34 8.536-.485 12.799-.817 4.489-.346 8.975-.582 13.474-.749 8.68-.315 17.343-1.086 26.033-.98 4.595.055 9.18.216 13.77.424 4.056.187 8.122.138 12.17.505.705.116 1.394.264 2.07.501 1.24.553 2.371.862 3.736.482a4.939 4.939 0 0 0 2.917-2.249 4.961 4.961 0 0 0 .49-3.772c-.305-1.113-1.148-2.43-2.244-2.925-1.74-.78-3.435-1.526-5.322-1.88a76.04 76.04 0 0 0-4.57-.704c-2.102-.267-4.213-.392-6.319-.604a358.58 358.58 0 0 0-13.112-1.096c-3.24-.205-6.477-.276-9.71-.276-5.562 0-11.123.212-16.689.318" id="Fill-9" stroke="#000" stroke-width="2" fill="#000"/><path d="M161.34 240.456c.019.134.039.269.054.406a4.727 4.727 0 0 1-.054-.406m-8.575-57.409c.01.116.015.227.018.339.033.933.059 1.865.12 2.798.142 2.07.09 4.076-.44 6.133-.255.99-.61 1.932-.992 2.869-.158.402-.29.807-.406 1.22-.044.423-.091.848-.143 1.273.034.117.067.234.099.352.009.674-.033 1.345-.094 2.016-.215 1.076-.54 2.098-.936 3.118-.046.103-.093.205-.138.308-.162.473-.342.918-.543 1.345a8.297 8.297 0 0 0-.345 1.317 17.663 17.663 0 0 0-.223 4.076c.093 1.437.37 2.792.895 4.124.357.897.724 1.705 1.203 2.532.406.697.934 1.326 1.422 1.965 1.207 1.565 2.292 3.172 3.167 4.932.103.3.19.6.264.91.009.31.002.62-.013.93-.132.584-.3 1.15-.502 1.712-1.027 2.063-2.388 3.954-3.334 6.056-.614 1.37-1.197 2.728-1.608 4.168-.95 3.309.076 6.653 1.76 9.541 2.181 3.74 4.816 7.177 7.14 10.829 2.458 3.864 4.804 7.796 7.246 11.667 2.285 3.62 4.8 7.127 7.353 10.564a284.741 284.741 0 0 0 2.333 3.095c.94 1.23 1.792 2.466 2.468 3.862.286.59.537 1.204.795 1.814l-.483-1.13c.608 1.452 1.216 2.906 1.843 4.35-.653.403-1.328.747-2.023 1.067-2.06.744-4.202 1.2-6.324 1.763l-3.783.996c-1.075.285-2.147.565-3.219.85-.888.233-1.76.598-2.625.891l-3.624 1.237c-.894.303-1.76.724-2.631 1.089-2.256.938-4.486 1.935-6.729 2.903-2.577 1.006-5.238 1.673-7.925 2.345-1.548.382-3.14.709-4.663 1.2-.286-.855-.572-1.715-.856-2.57-1.387-4.22-2.758-8.446-4.235-12.637-1.524-4.331-3.085-8.646-4.598-12.984a317.003 317.003 0 0 1-2.2-6.609c-.693-2.13-1.265-4.29-1.863-6.45-1.406-5.071-2.372-10.262-3.295-15.44-.425-2.37-.93-4.705-1.587-7.02a22.41 22.41 0 0 0-.319-1.035 6.62 6.62 0 0 0 1.15-1.438 6.383 6.383 0 0 0 .887-3.255 6.385 6.385 0 0 0-.888-3.258c-.447-1.04-1.438-1.967-2.41-2.533-1.22-.709-2.3-.846-3.691-.96-.92-.078-1.83.098-2.738.236a24.936 24.936 0 0 1-2.826-.812c-1.64-.763-3.21-1.648-4.784-2.546a36.87 36.87 0 0 1-2.211-1.35 10.439 10.439 0 0 1-.419-.413c-.289-.422-.566-.85-.82-1.29a10.952 10.952 0 0 1-.157-.739 412.713 412.713 0 0 0-1.066-7.934 147.656 147.656 0 0 1-.411-3.948c-.126-1.411-.071-2.862.05-4.28.128-.615.292-1.215.487-1.81a10.4 10.4 0 0 1-.808-1.633c-1.538-.553-2.896-1.61-4.176-2.642-1.307-.955-2.572-1.942-3.691-3.114-.28-.288-.547-.581-.82-.87-.169-.08-.34-.157-.51-.235-.999 1.731-1.755 3.62-2.367 5.504-.606 1.865-.77 3.88-.901 5.826a44.516 44.516 0 0 0-.071 3.075c.01 2.138.357 4.345.656 6.456.193 1.339.383 2.68.576 4.021.074.674.145 1.348.216 2.026.135 1.293.277 2.587.518 3.868.2 1.063.743 2.108 1.248 3.053.84 1.572 1.85 2.977 3.01 4.344.848 1.003 2.145 1.949 3.201 2.67 1.805 1.23 3.694 2.33 5.682 3.242 2.214 1.017 4.418 1.866 6.81 2.326.916 2.964 1.482 6.034 2.027 9.087.437 2.45.913 4.884 1.415 7.319.464 2.242 1.056 4.459 1.596 6.681.522 2.141 1.233 4.246 1.854 6.357.598 2.035 1.377 4.028 2.068 6.03 1.352 3.91 2.96 7.744 4.445 11.605 1.799 4.676 3.561 9.363 5.248 14.083 1.76 4.932 3.568 9.848 5.184 14.83.843 2.607 3.478 4.262 6.223 3.511 1.74-.476 3.115-1.926 3.578-3.619 3.295-.875 6.638-1.562 9.911-2.52 3.09-.904 5.988-2.386 8.881-3.772 1.268-.608 2.555-1.182 3.835-1.764l5.532-2.098c.911-.345 1.895-.563 2.832-.843l4.134-1.23c2.253-.671 4.541-1.214 6.713-2.124 1.547-.649 3.054-1.297 4.476-2.185 1.873-1.172 3.26-2.677 4.463-4.504 1.01-1.533 1.59-3.648 1.66-5.481.052-1.354-.199-2.76-.682-4.028-.431-1.13-.933-2.24-1.39-3.357a183.93 183.93 0 0 0-1.818-4.328c-.804-1.843-1.992-3.44-3.186-5.044-1.26-1.696-2.538-3.376-3.794-5.075-2.77-3.757-5.386-7.61-7.938-11.515-2.017-3.092-3.835-6.331-6-9.327a1739.16 1739.16 0 0 0-3.618-4.977c-1.142-1.568-2.268-3.213-3.15-4.954.151-.575.338-1.134.547-1.693.59-1.198 1.255-2.347 1.928-3.504.92-1.588 1.67-3.264 2.297-4.986.286-.796.438-1.629.554-2.463.118-.69.202-1.386.247-2.085.077-.943-.096-1.892-.225-2.821-.248-1.779-.955-3.376-1.725-4.99-.289-.6-.601-1.213-.971-1.765-1.178-1.758-2.658-3.38-3.666-5.236a12.095 12.095 0 0 1-.206-.712c-.022-.425-.025-.85-.009-1.274l.058-.202a60.656 60.656 0 0 0 1.49-3.382c.463-1.173.64-2.425.836-3.661a31.82 31.82 0 0 0 .377-3.37c.067-1.29-.19-2.648-.54-3.887-.413-1.453-1.159-2.84-1.793-4.217-.392-.843-.882-1.638-1.397-2.414-.73-1.1-1.57-2.185-2.57-3.057-1.197-1.047-2.493-1.752-3.894-2.354.006.348.01.698.01 1.047" id="Fill-11" stroke="#000" stroke-width="2" fill="#000"/><path d="M53.37 87.032c-1.051.032-2.144.215-3.173.374a9.682 9.682 0 0 0-1.745.41c-.536.134-1.053.334-1.51.642a6.005 6.005 0 0 0-2.132 2.166 6.149 6.149 0 0 0-.598 4.65 6.066 6.066 0 0 0 2.028 3.116l.029.03c1.745 1.773 4.295 2.01 6.348.931.575.001 1.15.031 1.73.088 1.205.114 2.403.15 3.615.166 1.4.02 2.8-.007 4.204-.033 1.234-.022 2.467-.049 3.7-.042C69.21 99.55 72 96.68 72 93.297c0-3.435-2.79-6.184-6.134-6.233a703.8 703.8 0 0 0-8.7-.058c-.514-.003-1.029-.006-1.544-.006-.75 0-1.501.007-2.252.032" id="Fill-13" stroke="#000" stroke-width="2" fill="#000"/><path d="M452.599 1.362c-2.158.843-4.193 1.9-6.238 2.946a197.802 197.802 0 0 1-9.227 4.328l-4.983 2.18c-1.66.727-3.276 1.53-4.904 2.316-3.654 1.76-7.209 3.68-10.785 5.565-2.833 1.496-5.675 2.968-8.514 4.444-3.769 1.674-7.502 3.422-11.378 4.873-2.618.977-3.996 3.705-2.99 6.084.995 2.351 4.038 3.543 6.662 2.577 2.806-1.03 5.513-2.224 8.247-3.404 1.647-.713 3.284-1.41 4.885-2.208 4.487-2.234 8.978-4.463 13.48-6.675 3.934-1.935 7.978-3.65 12.06-5.301 1.812-.731 3.661-1.427 5.426-2.25a229.443 229.443 0 0 0 7.483-3.666c2.02-1.033 4.024-2.126 5.745-3.544a5.066 5.066 0 0 0 1.71-1.904A4.41 4.41 0 0 0 459.426 4c-.837-1.972-3.164-3.212-5.46-2.97a5.255 5.255 0 0 0-1.367.33" id="Fill-15" stroke="#000" stroke-width="2" fill="#000"/><path d="M449.615 96.02c-1.722.012-3.442.021-5.164.054-3.82.07-7.637.163-11.455.276-8.697.256-17.39.664-26.077 1.072-1.328.064-2.521.462-3.476 1.37a4.56 4.56 0 0 0-1.443 3.3c0 2.458 2.238 4.78 4.919 4.668 8.42-.357 16.845-.696 25.272-.768 3.861-.033 7.714-.039 11.576.009 1.748.022 3.495.063 5.243.109l2.252.06c.133.003.268.007.403.009.066.04.133.08.201.118 1.146.638 2.757.928 4.044.502a14.455 14.455 0 0 0 1.677-.643c.7-.297 1.254-.786 1.847-1.243a5.043 5.043 0 0 0 1.375-2.238 4.844 4.844 0 0 0 0-2.696c-.48-1.65-1.942-3.152-3.735-3.545-1.679-.366-3.42-.434-5.156-.434-.77 0-1.54.013-2.303.02" id="Fill-17" stroke="#000" stroke-width="2" fill="#000"/><path d="M399.187 174.861c-.774 2.789.933 5.673 3.711 6.466 4.238 1.21 8.469 2.434 12.7 3.671 2.912.85 5.861 1.626 8.746 2.558 3.428 1.11 6.856 2.217 10.286 3.326 2.353.762 4.652 1.727 6.958 2.625 1.136.5 2.286.984 3.393 1.541 1.682.85 3.453 1.65 4.993 2.751l.58.444a5.686 5.686 0 0 0 6.816-.873c2.13-2.108 2.215-5.775 0-7.874-1.958-1.853-4.23-3.041-6.616-4.227-1.142-.569-2.388-1.013-3.572-1.501-.733-.303-1.463-.64-2.214-.901-2.195-.76-4.393-1.52-6.587-2.281-1.579-.547-3.208-.972-4.81-1.448-9.249-2.766-18.554-5.338-27.849-7.947-.46-.13-.924-.191-1.384-.191-2.326 0-4.513 1.57-5.151 3.861" id="Fill-19" stroke="#000" stroke-width="2" fill="#000"/><path d="M392.136 262.137c-1.143 1.161-1.567 3.283-.598 4.7.482.708.97 1.393 1.52 2.048.343.316.696.62 1.059.906.446.356.899.708 1.349 1.057 1.679 1.296 3.55 2.34 5.354 3.442 1.221.74 2.434 1.493 3.655 2.232 3.567 2.158 7.133 4.316 10.704 6.47 2.273 1.376 4.498 2.843 6.742 4.27 1.766 1.129 3.535 2.253 5.304 3.38 1.921 1.224 3.76 2.589 5.562 3.987 2.377 1.93 4.533 4.042 6.577 6.337 1.078 1.21 2.073 2.503 3.077 3.781.587.815 1.124 1.647 1.579 2.56.61 1.219 1.93 2.144 3.201 2.5a5.323 5.323 0 0 0 4.129-.548 5.475 5.475 0 0 0 2.465-3.254c.402-1.482.116-2.848-.542-4.191-.825-1.69-1.997-3.198-3.233-4.6a80.26 80.26 0 0 0-3.384-3.654c-3.744-3.767-8.132-6.835-12.595-9.648-1.602-1.01-3.253-1.937-4.89-2.885-2.39-1.382-4.775-2.764-7.163-4.146-2.902-1.682-5.83-3.316-8.753-4.961-2.087-1.177-4.173-2.354-6.264-3.53-1.094-.618-2.2-1.222-3.299-1.845-2.189-1.847-4.312-3.808-6.926-5.014a3.764 3.764 0 0 0-1.927-.531 3.81 3.81 0 0 0-2.703 1.137" id="Fill-21" stroke="#000" stroke-width="2" fill="#000"/><path d="M341.837 26.379c-.955.946-1.269 2.036-1.392 3.328-.408 4.275-.959 8.535-1.503 12.794-.563 4.428-.916 8.853-1.197 13.306-.27 4.297-.681 8.587-.963 12.887-.284 4.328-.384 8.673-.55 13.01-.155 4.118-.14 8.239-.162 12.358-.026 4.281-.146 8.577.003 12.858.152 4.37.276 8.747.544 13.111.256 4.19.82 8.355 1.124 12.546.23 3.226.453 6.455.826 9.67.382 3.252.777 6.5 1.169 9.751.777 6.487 1.495 12.98 2.377 19.453l-.043-.31c.331 2.503.654 5.005.871 7.519.237 2.74.37 5.489.49 8.237.129 2.901.43 5.768.844 8.647.343 2.395.768 4.782 1.148 7.173.485 3.928.866 7.853 1.126 11.809a358.61 358.61 0 0 0 1.094 13.194c.457 4.457.833 8.917 1.237 13.38.435 4.806.868 9.639 1.93 14.358a60.52 60.52 0 0 0 1.25 4.627c.357 1.151.92 2.254 1.438 3.338.224.473.435.951.643 1.431.65 1.612 1.295 3.22 1.902 4.848.424 1.134 1.001 2.057 2.085 2.686a4.616 4.616 0 0 0 3.498.452c2.276-.619 3.973-3.21 3.173-5.528a123.501 123.501 0 0 0-3.334-8.612c-1.162-3.273-1.789-6.677-2.378-10.084-.512-4.165-.89-8.336-1.27-12.514-.394-4.358-.903-8.709-1.352-13.063-.448-4.287-.584-8.603-1.03-12.89a234.457 234.457 0 0 0-1.875-13.925 162.47 162.47 0 0 1-.546-3.576c-.382-4.105-.474-8.228-.753-12.34-.294-4.267-.957-8.518-1.563-12.75-1.09-8.426-2.04-16.87-3.022-25.31-.5-4.281-.732-8.587-1.089-12.88-.174-2.065-.433-4.127-.592-6.192-.174-2.27-.298-4.534-.376-6.807-.138-4.239-.275-8.494-.194-12.736.081-4.136.214-8.272.295-12.412.172-8.763.527-17.528 1.162-26.27.214-2.933.457-5.863.677-8.795.21-2.792.256-5.598.528-8.387.586-6.025 1.305-12.034 1.862-18.062.11-1.186-.57-2.517-1.39-3.328A4.802 4.802 0 0 0 345.2 25c-1.257 0-2.475.5-3.362 1.379" id="Fill-23" stroke="#000" stroke-width="2" fill="#000"/><path d="M86.763 205.086l.077.056-.077-.056m-.893-.457c.142.047.278.102.41.168-.136-.057-.274-.112-.41-.168m-5.544-9.321c-.291.063-.571.165-.852.253-1.489.48-2.901 1.213-4.3 1.89-2.156 1.047-2.753 3.922-1.591 5.832a4.459 4.459 0 0 0 2.65 1.96c1.205.319 2.327.1 3.416-.43.525-.254 1.05-.507 1.579-.745.329-.109.656-.203.991-.282l.164.001c1.376.275 2.722.675 4.05 1.112.336.296.657.602.966.924.145.215.28.435.408.665.327.9.589 1.819.865 2.74.254.847.544 1.684.765 2.541.251.974.515 1.936.849 2.888.286.806.61 1.616.83 2.44.087.642.216 1.264.477 1.892.145.327.287.654.432.98.38.616.887 1.108 1.531 1.47a4.444 4.444 0 0 0 3.287.416c2.182-.578 3.683-2.917 2.984-5.05l-.09-.268c.015-.128.029-.257.04-.385.05-.588-.125-1.222-.28-1.797-.126-.46-.231-.926-.34-1.39-.261-1.097-.522-2.19-.72-3.3a95.548 95.548 0 0 0-.65-3.186c-.13-.597-.264-1.2-.459-1.783-.152-.461-.313-.909-.502-1.356a17.782 17.782 0 0 0-.83-1.79c-.335-.508-.7-.99-1.103-1.444-1.278-1.577-2.973-2.907-4.914-3.627-1.294-.48-2.644-.771-4-1.025a30.556 30.556 0 0 0-3.086-.439 4.777 4.777 0 0 0-.39-.015c-.73 0-1.49.157-2.177.308" id="Fill-25" stroke="#000" stroke-width="2" fill="#000"/></g></symbol><symbol id="gallery-symbol" fill="none" fill-rule="evenodd"><g id="Ebene_1" fill="#000" fill-rule="nonzero"><path d="M1684.3 10734.3c-8-2-21.2-9.7-27.7-16.1-9.3-9.1-12.6-16.7-12.8-29v-9.8l-7.7-5c-22.5-14.6-71.2-55-247-204.9l-53.6-45.6-50.4-.9-50.4-.8v8.1h-35.2c-21.4 0-34.8.5-34.3 1.1.4.8-4 .9-11.1.5-6.5-.4-12.1-1.3-12.3-1.8-.3-.6-8.2-1.1-17.6-1.1h-17.1v-47l-4.3-6.5c-9.4-13.9-12.9-31.4-9.8-49.5 1.8-10 6.8-21.8 12-28l3.4-4.1.1-92.3c.1-169.6 2.2-373.6 4.2-417.9 1-23.1 2.6-54.8 3.3-70.2 4.1-88.1 4.9-136.1 2.6-172.3-1.7-26.2-4.7-121.5-5.9-178.3l-.8-46.8h12.5c11.6 0 47.1 1.9 97.5 5 10.8.8 22 1.3 24.6 1.3 4.7 0 4.7 0 5 5.5l.1 5.4.5-5c.4-2.8 1-4.5 1.4-3.7 1 1.7 28.1 2.6 106.2 3.6 26.3.4 62.3.9 79.8 1.3 17.6.4 51.4.9 75.3 1.3 40.2.6 60 .9 153.2 2.6 74.7 1.3 141.9 2.3 215.5 3.2 66.8.9 59.7 1-54.6.6-111.6-.3-120-.3-55.5.6 41.7.5 129.4 1.4 194.7 1.9 65.4.5 119.1 1.1 119.7 1.5.5.3.9-.6.9-2.2 0-1.4.8-2.8 1.7-3.1 5.9-1.9 126.5-4.6 127.9-3.1.3.3 1.1 17.6 2 38.7 2.2 50.9 2.3 173.7.1 199.1-1.4 17-4.9 92.2-7.5 168.5-1 26.8-1 26.8-1.8 12.1-.5-8-1-25.5-1.1-38.9l-.4-24.3-2.2 28.1c-4.9 60.1-6.9 110.2-10.2 247-.8 29.9-1.9 76.7-2.6 104-.6 27.4-1.8 74.8-2.6 105.3s-1.9 76-2.6 100.8c-.8 24.9-1.3 49.1-1.3 54 0 8.6 0 8.6 3.6 8.6 4.1 0 19.1 4.9 25.9 8.3 6.8 3.6 20.4 13.3 26.4 19 11.2 10.6 17.2 24.3 18.8 42.4 1.7 18.9-4.1 35.5-17.2 49.4-11.1 12-25.5 18.8-39.6 18.8-15.4 0-41.2-10.7-53.4-22.2l-6.9-6.5-14.6.5c-10.1.3-14.6 0-14.6-1s-8.2-1.4-27.1-1.4c-14.9 0-29.4-.4-31.9-.8-4.7-.8-4.9-1-4.9-6.4v-5.6h-69.2l-8.6 6c-4.6 3.3-26.8 19.5-49.3 36.1-22.5 16.6-46 33.8-52.3 38.3-9.4 6.6-59.6 44.3-145.8 109.3-6.5 4.9-11.7 9.1-11.7 9.4-.1.4 2.4 2 5.5 3.7 7.5 3.8 22.2 18.9 26 26.6 5.9 11.4 4.6 28.8-3.1 44-8.3 16.5-29 30.1-46.8 31-4.6.5-10.7.1-13-.4zm33.6-138.1c48-36.4 184.4-138.2 208.4-155.6l13.1-9.6-68.7-.3c-59.9-.3-216.5-2.2-431.2-5.4-35.1-.5-64.1-.8-64.3-.5-.3.3-.3.5 0 .8.3.3 43.9 37.1 96.9 82.1 87.3 74 142.1 119.2 144.2 119.2.5 0 1.5-2.2 2.3-5 .9-2.7 2.9-6.4 4.9-8.2 2.6-2.7 3.8-3.1 6.6-2.2 16.6 5.1 21.3 7 28.1 12 4.2 3.2 8 6.3 8.4 7 .5.8 1.7 1.4 2.4 1.4 1 .2 23-16 48.9-35.7zm417-258.4c7.2-83.9 11.2-250.6 16-639 1.9-171.7 3.7-250.1 6.1-293.8l1-16.5-24.5-1.1c-25-.9-142.4-4.3-257.7-7.1-110.9-2.8-333-3.6-500.7-1.7-88.6.9-170.1 2.2-180.8 2.8l-19.6.9-1.9 37.4c-4.5 94.8-11.4 864.2-7.9 908.7.7 10.9 1.8 20.4 2.2 20.8 1.5 1.4 310.1 13.8 441.2 17.7 53.2 1.6 432.4 8.4 499.3 9l23.9.2 3.4-38.3zm-483.8-1002.2c-19.1-.3-50.2-.3-68.9 0-18.8.1-3.1.3 34.8.3s53.3-.2 34.1-.3zm-149.8-1.3c-9.1-.3-23.6-.3-32.5 0-9.1.1-1.7.4 16.2.4 17.8 0 25.2-.3 16.3-.4zm-93.9-1.3c-14.3-.3-37.5-.3-51.7 0-14.3.1-2.7.3 25.8.3s40.1-.1 25.9-.3z" transform="matrix(.1 0 0 -.1 -108 1074)"/><path d="M2003.5 9338.1c9.6-.3 25.4-.3 35.1 0 9.6.1 1.7.4-17.6.4s-27.2-.2-17.5-.4z" transform="matrix(.1 0 0 -.1 -108 1074)"/></g></symbol><symbol id="contact-symbol" stroke="#000" fill-rule="evenodd"><g id="handshake"><path d="M43.295 6.102c-1.218 4.442 1.463 8.867 5.747 10.185.887.27 1.774.54 2.649.839 2.877 1.462 5.34 3.526 7.951 5.444a80.192 80.192 0 0 0 7.667 4.971 453.339 453.339 0 0 1 15.45 9.22c5.265 3.295 10.607 6.462 15.963 9.609 5.105 3.001 10.304 5.927 15.24 9.216a177.801 177.801 0 0 1 8.453 6c4.545 3.607 9.124 7.217 13.348 11.208a146.566 146.566 0 0 1 6.27 6.304c.928.987 1.847 1.975 2.807 2.93.445.449.923.889 1.414 1.288.679.552 1.365 1.13 2.071 1.625 1.098.767 2.298 1.252 3.557 1.704 3.347 1.19 7.319-.753 9.028-3.697a8.128 8.128 0 0 0 .807-6.192c-.499-1.813-1.882-4.011-3.673-4.801-1.267-.56-2.457-1.469-3.6-2.328-1.834-1.55-3.453-3.323-5.097-5.085-1.972-2.118-3.98-4.2-6.078-6.193-4.699-4.455-9.528-8.811-14.71-12.697-9.71-7.283-20.252-13.31-30.637-19.556-6.711-4.033-13.244-8.337-20.09-12.146-3.33-1.858-6.582-3.778-9.698-5.986-1.517-1.073-3.016-2.172-4.547-3.23-3.066-2.128-6.632-3.34-10.167-4.411A7.41 7.41 0 0 0 51.252 0c-3.589 0-6.984 2.549-7.957 6.102"/><path d="M210.027 59.28c-3.364.462-6.404 1.698-9.518 3.018-2.474 1.05-4.855 2.299-7.236 3.549-4.72 2.483-9.414 4.99-14.292 7.148a481.42 481.42 0 0 0-9.9 4.098c-1.915.784-3.845 1.51-5.8 2.206-2.265.809-4.482 1.724-6.69 2.67-1.356.531-2.728.98-4.127 1.406-3.88 1.174-6.297 5.166-5.198 9.15 1.06 3.845 5.269 6.347 9.158 5.191 2.257-.67 4.459-1.444 6.683-2.204 2.239-.77 4.535-1.343 6.809-1.992 2.105-.596 4.148-1.325 6.195-2.094 2.518-.947 5.059-1.831 7.591-2.734 5.028-1.788 9.878-4.108 14.618-6.544 3.723-1.913 7.38-3.971 11.197-5.691 2.223-.868 4.445-1.712 6.593-2.765 3.137-1.546 4.512-5.685 3.626-8.904a7.962 7.962 0 0 0-3.626-4.713c-.633-.266-1.26-.529-1.887-.795a8.108 8.108 0 0 0-2.098-.28c-.7 0-1.4.093-2.098.28" transform="rotate(3 183.5 78.5)"/><path d="M464.486 16.092c-3.133.175-6.258.408-9.378.7a270.004 270.004 0 0 0-18.72 2.373c-6.003.975-11.92 2.206-17.76 3.908-5.788 1.69-11.598 3.316-17.318 5.234-2.895.97-5.724 2.192-8.549 3.351-3.235 1.326-6.445 2.71-9.604 4.205-5.116 2.417-10.084 5.135-15.181 7.579-2.548 1.222-5.06 2.471-7.494 3.904-2.336 1.37-4.578 2.885-6.833 4.38-3.237 2.144-6.567 4.138-9.83 6.231-1.544.994-3.056 2.022-4.583 3.033-2.032 1.352-4.579 2.57-5.021 5.292a6.11 6.11 0 0 0 0 3.213c.371 1.356 1.418 3.027 2.766 3.61.523.23 1.052.455 1.58.675 1.118.306 2.3.292 3.41-.036.739-.22 1.45-.589 2.157-.916.86-.405 1.648-1.002 2.426-1.542 1.983-1.378 3.94-2.771 6.006-4.025 2.162-1.31 4.395-2.502 6.527-3.863 2.139-1.362 4.215-2.83 6.341-4.214 4.458-2.898 9.283-4.991 14.063-7.277 4.696-2.25 9.338-4.582 14.111-6.658 3.818-1.557 7.642-3.181 11.563-4.461 4.412-1.433 8.892-2.625 13.355-3.887 4.184-1.186 8.373-2.354 12.635-3.22 4.232-.863 8.493-1.54 12.767-2.154 7.693-.99 15.403-1.966 23.165-2.218 3.857-.126 7.72.023 11.578.023 4.31 0 8.62.012 12.93.094 3.491.062 6.405-2.974 6.405-6.429 0-3.567-2.914-6.353-6.405-6.433-6.163-.14-12.331-.31-18.493-.477-1.64-.043-3.286-.087-4.93-.087-1.23 0-2.46.024-3.686.092"/><path d="M217.467 123.346c-.1.016-.2.028-.3.039l.3-.04M233.77 56.44c-1.134.337-2.242.768-3.35 1.186-1.651.62-3.32 1.2-4.926 1.937-1.772.809-3.248 1.856-4.773 3.074-1.41 1.127-2.472 2.79-3.46 4.281-.734 1.115-1.287 2.364-1.82 3.586a105.667 105.667 0 0 0-2.06 5.15c-.964 2.606-1.821 5.257-2.686 7.899-.875 2.66-1.79 5.307-2.603 7.99-.83 2.723-1.664 5.45-2.422 8.196-.7 2.547-1.463 5.1-1.997 7.692-.664 3.231-1.273 6.493-1.556 9.787-.355 4.07.022 8.622 2.288 12.095 1.45 2.216 3.674 3.99 6.078 5.082 1.238.563 2.455 1.11 3.791 1.367 1.126.215 2.081.292 3.194.202 1.086-.09 2.167-.292 3.23-.525 2.952-.657 5.747-2.058 8.417-3.456 5.746-3.002 10.82-7.15 15.66-11.423a158.623 158.623 0 0 1 5.505-4.63 178.777 178.777 0 0 1 5.58-4.073 43.088 43.088 0 0 1 3.119-1.982c.955-.552 1.704-1.02 2.6-1.765 1.316-1.097 2.2-2.787 2.625-4.427.732-2.83-.443-5.863-2.992-7.35-2.35-1.38-5.324-1.094-7.402.59-.359.182-.725.343-1.077.542-.529.301-1.03.655-1.538.992a50.631 50.631 0 0 0-3.046 2.207c-2.405 1.86-4.822 3.716-7.142 5.684a173.395 173.395 0 0 0-6.281 5.635 104.313 104.313 0 0 1-5.725 4.963c-2.899 2.087-5.902 3.999-9.136 5.514-1.042.38-2.083.69-3.162.93-.16-.047-.321-.096-.48-.15a16.073 16.073 0 0 1-1.576-.889 9.203 9.203 0 0 1-.196-.339 16.075 16.075 0 0 1-.26-1.049 33.333 33.333 0 0 1 .079-5.941c.239-1.575.49-3.156.78-4.72.319-1.712.804-3.383 1.247-5.064.884-3.387 1.93-6.736 2.917-10.097 1.027-3.491 2.17-6.947 3.239-10.429 1.041-3.395 2.131-6.778 3.418-10.09.584-1.297 1.228-2.54 2.018-3.73.311-.343.638-.668.986-.976.75-.512 1.519-.963 2.34-1.36 3.128-1.257 6.334-2.296 9.66-2.858 2.486-.177 4.936.088 7.413.367 2.683.301 5.375.512 8.065.697 5.81.399 11.651.53 17.434 1.217 2.763.328 5.518.773 8.286 1.01 2.983.253 5.97.437 8.959.644 5.742.386 11.492.666 17.21 1.35 1.803.249 3.606.508 5.4.829 2.023.364 4.001.926 6.002 1.388a64.21 64.21 0 0 0 13.822 1.645c3.019.031 5.535-2.543 5.535-5.54 0-3.052-2.516-5.51-5.535-5.546-1.705-.02-3.398-.085-5.092-.26a97.168 97.168 0 0 1-7.739-1.595c-2.786-.688-5.599-1.132-8.439-1.528-3.175-.44-6.356-.817-9.555-1.06-2.916-.225-5.84-.382-8.757-.566-5.706-.356-11.399-.648-17.073-1.34a157.565 157.565 0 0 0-8.964-.84c-3.005-.198-6.02-.274-9.03-.436-2.728-.153-5.464-.292-8.187-.516-2.67-.22-5.33-.59-8.013-.616l-.187-.001c-2.906 0-5.888.607-8.66 1.439"/><path d="M324.896 132.014c.627.262 1.253.524 1.88.788-.624-.26-1.252-.525-1.88-.788m-69.632-36.602c-1.092 3.956 1.322 7.801 5.137 9.005 3.123.986 6.257 1.884 9.3 3.09 4.677 2.026 9.346 4.054 14.049 6.017 6.569 2.819 12.954 6.003 19.434 9.024 7.156 3.33 14.413 6.403 21.686 9.454 2.003.86 4.006 1.713 5.96 2.671 1.928.944 3.775 2.059 5.636 3.128 3.283 1.885 6.52 3.838 9.59 6.045.877.729 1.704 1.49 2.48 2.33.263.404.508.816.736 1.244.127.404.238.809.337 1.221.049 1.009.01 1.997-.078 2.999a34.723 34.723 0 0 1-1.49 5.218c-.836 1.591-1.828 3.044-2.905 4.48-.581.734-1.167 1.467-1.766 2.185-1.056 1.258-2.257 2.408-2.963 3.913a6.354 6.354 0 0 0 0 6.418c1.124 1.91 3.272 3.176 5.515 3.145 2.782-.036 4.958-1.396 6.747-3.392a181.807 181.807 0 0 0 2.79-3.183c2.109-2.461 4.253-5.066 5.533-8.064.688-1.607 1.466-3.231 1.897-4.937.499-1.956.921-4.02 1.052-6.033.31-4.808-.575-9.457-3.272-13.521-2.148-3.245-5.138-5.528-8.226-7.811a104.673 104.673 0 0 0-6.43-4.359c-4.595-2.883-9.205-5.667-14.15-7.926-5.559-2.543-11.231-4.853-16.822-7.328-5.507-2.444-10.953-5.025-16.44-7.51-5.826-2.631-11.822-4.851-17.768-7.192-2.52-.99-4.998-2.104-7.582-2.931-2.549-.82-5.173-1.352-7.73-2.14l-1.21-.376a6.562 6.562 0 0 0-1.95-.296c-3.197 0-6.234 2.297-7.097 5.412"/><path d="M330.327 175.282c0 .002.002.003.003.004l-.017.095.014-.1m-.005-1.596c.018.106.032.215.044.322l-.044-.322m-12.533-12.619a6.752 6.752 0 0 0 .696 5.248c.956 1.607 2.39 2.537 4.141 3.134.473.16.944.322 1.41.493.991.49 1.912 1.061 2.821 1.676a25.72 25.72 0 0 1 2.932 2.87c.124.173.244.347.361.524-.083.255-.171.509-.265.763-2.333 5.077-5.037 10.052-8.344 14.58-.167.19-.336.375-.511.558-.586-.176-1.165-.37-1.766-.527-1.163-.298-2.389-.347-3.584-.476-1.208 0-2.33.303-3.376.894a6.63 6.63 0 0 0-3.067 3.926 6.556 6.556 0 0 0 0 3.495l.674 1.57a6.706 6.706 0 0 0 2.393 2.36c3.2 2.398 7.503 3.4 11.453 2.545 3.059-.663 5.75-2.27 7.932-4.455 1.072-1.068 2.008-2.363 2.922-3.547 2.511-3.25 4.666-6.802 6.494-10.465 1.125-2.27 2.198-4.562 3.095-6.935.574-1.522.724-3.218.8-4.824-.118-.9-.24-1.798-.366-2.697-.39-.976-.783-1.945-1.272-2.876-.733-1.384-1.891-2.621-2.886-3.81-1.643-1.963-3.747-3.52-5.86-4.95-2.538-1.722-5.403-2.852-8.308-3.836a5.788 5.788 0 0 0-1.86-.304c-2.995 0-5.87 2.238-6.659 5.066"/><path d="M307.77 202.588a6.298 6.298 0 0 1-.18.437l.18-.437m.811-14.632c-3.3 1.949-4.491 6.403-2.53 9.744.483.824.958 1.646 1.39 2.493.176.523.327 1.048.45 1.584l.002.281c-.15.258-.306.508-.47.756a21.975 21.975 0 0 1-2.013 1.958 29.07 29.07 0 0 1-3.454 2.112 27.922 27.922 0 0 1-3.65 1.052c-.44.017-.873.016-1.31-.004a17.559 17.559 0 0 1-1.986-.59c-1.184-.522-2.374-1.017-3.609-1.421-2.816-.92-6.044.574-7.494 3.08a6.738 6.738 0 0 0-.907 3.382c.08.597.156 1.19.236 1.782a6.726 6.726 0 0 0 1.707 2.96c1.49 1.916 3.759 2.882 5.964 3.708 3.202 1.2 6.644 1.45 10.007.862 3.94-.687 7.689-2.258 11.034-4.463 4.287-2.83 8.44-6.839 9.686-12.02.716-2.969.315-6.17-.627-9.039-.668-2.016-1.708-3.849-2.776-5.662-1.313-2.239-3.706-3.511-6.146-3.511a6.843 6.843 0 0 0-3.504.956"/><path d="M280.784 215.193c-.009.111-.024.22-.042.327l.042-.327m-3.558-11.03c-2.681 2.739-2.902 7.719 0 10.426.823.77 1.655 1.528 2.453 2.32-.16.162-.326.323-.494.48a24.518 24.518 0 0 1-2.82 1.604 31.403 31.403 0 0 1-5.61 1.57 31.608 31.608 0 0 1-3.448.147 7.487 7.487 0 0 0-5.587.868 7.753 7.753 0 0 0-2.738 2.803c-1.117 1.95-1.135 3.878-.77 6.027.53 3.135 3.487 5.752 6.437 6.333 1.48.29 2.668.307 4.105.195a41.914 41.914 0 0 0 6.03-.921c1.57-.354 3.085-.944 4.56-1.574 1.99-.853 4.01-1.701 5.836-2.89 1.71-1.12 3.385-2.38 4.799-3.882 1.366-1.442 2.557-3.179 3.48-4.953 1.036-1.994 1.727-4.362 1.497-6.643-.11-1.125-.203-1.996-.559-3.007-.634-1.806-1.294-2.817-2.433-4.318-1.298-1.718-2.981-3.129-4.546-4.585-1.44-1.342-3.12-2.163-5.097-2.163a7.147 7.147 0 0 0-5.095 2.163M338.004 66.985c-2.591 2.592-2.752 7.196 0 9.764 1.628 1.517 3.264 3.012 4.702 4.704 1.697 2.4 3.12 4.964 4.555 7.529 1.457 2.6 2.91 5.204 4.331 7.817a700.638 700.638 0 0 1 5.11 9.567c1.378 2.626 2.616 5.322 3.887 8 .663 1.63 1.326 3.257 1.986 4.888.703 1.726 1.286 3.483 1.896 5.249 1.453 4.228 2.744 8.486 4.035 12.771.614 2.044 1.067 4.147 1.596 6.213.452 1.771.829 3.519 1.183 5.312.386 1.969.835 3.937 1.121 5.922.261 1.835.525 3.671.789 5.506.65 6.156 1.2 12.294 1.524 18.476.305 5.886-.085 11.807-.134 17.698-.023 2.483-.135 4.962-.158 7.445-.009 1.184.148 2.372.377 3.537.65 3.353 3.51 5.483 6.85 5.613 1.484.059 3.04-.538 4.43-.995 1.47-.484 2.958-.82 4.473-1.13 2.919-.591 5.783-1.372 8.733-1.802 3.125-.461 6.2-1.013 9.284-1.667 3.048-.651 6.074-1.484 9.11-2.192 5.939-1.385 11.996-2.27 17.998-3.332 2.753-.487 5.528-1.004 8.23-1.707 1.705-.444 3.403-.887 5.106-1.336 1.646-.426 3.26-1.085 4.873-1.623 1.337-.448 2.628-1.049 3.927-1.591 2.013-.843 4-1.713 5.963-2.667a85.182 85.182 0 0 0 7.961-4.375c.476-.296.92-.65 1.372-.978 1.892-1.366 3.757-2.981 4.766-5.145a8.222 8.222 0 0 0 1.12-4.148 8.24 8.24 0 0 0-2.407-5.804c-2.636-2.636-6.73-3.102-9.947-1.282-1 .56-2.067.981-3.085 1.506-.78.404-1.55.815-2.326 1.227-1.578.844-3.165 1.664-4.753 2.488-2.305 1.196-4.66 2.252-7.037 3.281-1.528.536-3.054 1.066-4.578 1.601-1.448.503-2.954.865-4.428 1.279a117.15 117.15 0 0 1-8.213 1.985c-3.322.672-6.643 1.34-9.97 2.004-2.695.542-5.42 1.08-8.074 1.793-5.921 1.595-11.79 3.366-17.761 4.774a71.821 71.821 0 0 0-7.89 2.342c.132-1.346.267-2.69.38-4.037.508-5.935.705-11.955.28-17.903-.22-3.005-.423-6.007-.727-9.006-.39-3.827-.884-7.625-1.425-11.435-.472-3.277-1.122-6.496-1.771-9.746-.615-3.093-1.516-6.132-2.314-9.18-1.52-5.783-3.609-11.423-5.604-17.048-.954-2.69-2.196-5.303-3.304-7.939a98.996 98.996 0 0 0-4.177-8.75c-2.878-5.322-5.801-10.61-8.827-15.852-1.489-2.573-2.98-5.136-4.555-7.66-1.3-2.094-2.865-4.075-4.496-5.904-1.29-1.452-2.807-2.74-4.223-4.057A7.317 7.317 0 0 0 342.796 65a6.714 6.714 0 0 0-4.792 1.985M150.489 79.025c-5.499 11.103-10.926 22.25-16.716 33.205a3117.789 3117.789 0 0 1-9.12 17.076c-2.73 5.082-5.356 10.234-8.232 15.234-1.554 2.703-3.093 5.408-4.744 8.052a486.75 486.75 0 0 1-5.333 8.326c-3.043 4.658-6.074 9.303-9.317 13.826-1.408 1.684-2.822 3.329-4.333 4.933-1.665 1.77-3.424 3.45-5.162 5.148-1.643 1.6-3.25 3.226-4.861 4.857a94.797 94.797 0 0 0-1.825 1.896c-.205-.087-.406-.17-.608-.247-1-.382-1.997-.779-2.989-1.182-3.248-1.412-6.508-2.789-9.816-4.06-3.075-1.188-6.226-2.196-9.34-3.262-2.923-.999-5.85-1.98-8.753-3.03-2.809-1.017-5.563-2.121-8.318-3.257-6.054-2.79-12.107-5.738-18.47-7.764-2.765-.882-5.562-1.77-8.426-2.29-2.58-.465-5.3-1.048-7.909-.407-2.778.68-5.17 2.746-5.946 5.555-.925 3.357.575 7.026 3.631 8.728 1.979 1.101 4.323 1.309 6.407.507.214.005.428.016.641.032 4.44.93 8.701 2.447 12.945 4.029 5.149 2.267 10.262 4.595 15.47 6.714 4.978 2.03 10.123 3.634 15.23 5.31 5.18 1.698 10.328 3.423 15.383 5.467 2.445.985 4.879 1.93 7.392 2.72 2.635.828 5.719 1.478 8.223-.127 1.289-.828 2.253-1.782 2.99-3.131.123-.224.251-.443.386-.657 1.523-1.732 3.238-3.261 4.959-4.8 2.321-2.076 4.551-4.234 6.77-6.422 4.82-4.749 8.702-10.286 12.427-15.901a660.463 660.463 0 0 0 10.252-15.883c3.08-4.938 5.823-10.09 8.556-15.221 4.974-9.328 10.032-18.617 14.79-28.054 4.955-9.83 9.587-19.812 14.44-29.692.753-1.532 1.09-3.065.623-4.754a6.212 6.212 0 0 0-2.841-3.688c-.93-.544-2.026-.811-3.128-.811-2.16 0-4.34 1.028-5.328 3.025M165.877 183.02c.07-.088.137-.177.206-.266l-.206.266m34.366 6.747c.16.113.317.232.467.36l-.467-.36m.314-.04c.083.1.162.201.237.305l-.237-.305m-43.025-15.439a22.35 22.35 0 0 1 2.59.735c.707.336 1.389.704 2.047 1.13 1.73 1.572 3.14 3.584 4.62 5.376.043.05.085.1.131.149-.287.354-.563.718-.837 1.076l.584-.752c-1.203 1.545-2.298 3.093-3.264 4.794-.968 1.71-1.688 3.555-2.421 5.375-.5 1.1-1.051 2.149-1.716 3.159-.202.223-.408.433-.624.636-.251.072-.502.132-.756.185-.814.035-1.608.015-2.41-.052a24.479 24.479 0 0 1-3.381-.955 19.606 19.606 0 0 1-2.238-1.359c-.85-.72-1.648-1.469-2.389-2.3-.499-.721-.931-1.47-1.312-2.257a15.942 15.942 0 0 1-.575-2.043c-.115-1.432-.068-2.867.044-4.305.19-1.001.457-1.96.81-2.92.3-.627.613-1.241.966-1.839a37.388 37.388 0 0 1 4.967-2.971c.93-.347 1.868-.644 2.848-.852.776-.055 1.54-.06 2.316-.01m-2.247-11.225c-1.172.12-2.345.263-3.504.473-.8.147-1.568.428-2.336.682-1.546.514-3.118 1.219-4.487 2.107a40.153 40.153 0 0 0-3.801 2.768c-1.572 1.311-2.816 2.868-3.639 4.743-.62 1.41-1.19 2.793-1.609 4.275-.471 1.683-.637 3.455-.794 5.19a26.923 26.923 0 0 0-.059 4.209c.226 3.212 1.285 6.251 2.934 9.014 1.882 3.15 4.963 5.81 8.158 7.587 1.447.807 3.1 1.352 4.699 1.784 1.733.47 3.553.706 5.345.777.723.03 1.428-.044 2.142-.124a18.452 18.452 0 0 0 2.27-.358c.984-.197 1.895-.691 2.807-1.084a10.074 10.074 0 0 0 1.743-1.227c.719-.58 1.29-1.175 1.878-1.889.52-.633 1.056-1.325 1.487-2.034 1.279-2.107 2.068-4.436 2.943-6.725a26.6 26.6 0 0 1 2.554-4.375c.27-.325.552-.643.85-.944a14.774 14.774 0 0 1 1.672-.368c2.618-.27 5.261-.225 7.892-.31 1.469-.05 2.937-.028 4.407-.01 1.574.019 3.156.02 4.725.157 1.31.27 2.542.705 3.777 1.198 1.263.547 2.502 1.116 3.681 1.827.02.02.043.041.062.062l.057.096c.112.36.204.722.28 1.092.1 1.277.072 2.54-.053 3.813-.492 2.566-1.082 5.113-1.935 7.583a26.868 26.868 0 0 1-2.069 3.765c-.416.47-.852.91-1.326 1.327-.624.407-1.268.754-1.941 1.072a38.182 38.182 0 0 1-6.214 1.692c-2.998.272-5.968.166-8.952-.171a26.117 26.117 0 0 1-3.625-.94 22.022 22.022 0 0 1-2.28-1.29c-.55-.355-1.111-.7-1.67-1.049a5.23 5.23 0 0 0-.455-.514 5.588 5.588 0 0 0-3.926-1.615c-.49.067-.978.134-1.473.196a5.586 5.586 0 0 0-2.448 1.419c-.059.05-.122.094-.18.143a5.534 5.534 0 0 0-1.442 2.455 5.593 5.593 0 0 0 0 2.959c.625 2.578 2.807 3.954 4.897 5.288 1.056.67 2.12 1.352 3.27 1.843 1.523.647 3.006 1.276 4.622 1.624a31.53 31.53 0 0 0 5.211.68c3.243.142 6.433.074 9.645-.461 2.983-.495 5.795-1.442 8.571-2.61 2.38-1.005 4.59-2.317 6.384-4.205 1.185-1.253 2.3-2.65 3.153-4.15 1.513-2.673 2.606-5.529 3.37-8.497.745-2.914 1.343-5.81 1.442-8.827.026-.754-.05-1.527-.131-2.272-.19-1.73-.494-3.28-1.25-4.864a11.194 11.194 0 0 0-3.947-4.556 23.202 23.202 0 0 0-2.053-1.205c-1.581-.83-3.29-1.527-4.95-2.173-1.061-.415-2.117-.764-3.24-.99-1.486-.305-3.005-.394-4.523-.452-2.849-.106-5.724-.026-8.571.116-2.274.114-4.524.172-6.768.419-.077-1.479-.728-2.59-1.669-3.73a442.671 442.671 0 0 1-2.754-3.379 38.174 38.174 0 0 0-1.33-1.57c-.624-.688-1.423-1.26-2.16-1.808-1.343-.99-2.758-1.638-4.308-2.271-1.186-.487-2.408-.866-3.684-1.053-1.362-.198-2.727-.398-4.1-.398-.422 0-.847.018-1.272.063"/><path d="M207.804 223.85l.372.156a7.727 7.727 0 0 1-.372-.156m-.301-.03c.163.126.326.25.49.378a3.594 3.594 0 0 1-.49-.378m16.04-27.061c.152.055.3.118.445.185l-.445-.185m.225-.147c.114.083.226.168.334.257l-.334-.257m-4.799-10.61c-2.703.004-5.405.301-8.09.534-1.427.124-2.644.48-3.686 1.518a5.16 5.16 0 0 0-1.526 3.656c0 1.367.552 2.694 1.526 3.656.903.899 2.37 1.629 3.686 1.518 3.816-.33 7.608-.6 11.422-.218a17.62 17.62 0 0 1 2.102.494c.014.008.027.017.041.024.122.207.237.418.348.634.58 1.585.98 3.195 1.262 4.852.158 2.382.037 4.725-.223 7.092-.616 3.222-1.575 6.338-2.762 9.394-.235.47-.492.92-.782 1.36-.299.332-.61.646-.94.946-.553.348-1.116.645-1.704.92a36.383 36.383 0 0 1-6.181 1.624c-1.429.14-2.837.155-4.273.045a16.114 16.114 0 0 1-1.888-.455l-.042-.023a3.48 3.48 0 0 1-.21-.258c-1.54-1.78-4.507-1.955-6.455-.823-2.573 1.491-3.277 4.689-1.909 7.226.867 1.617 2.272 2.922 3.942 3.705 1.733.815 3.382 1.15 5.276 1.399 3.326.432 6.657.03 9.917-.694 2.186-.49 4.345-1.257 6.387-2.151.859-.374 1.672-.771 2.47-1.265.768-.473 1.463-1.073 2.15-1.648 1.186-.984 2.146-2.338 2.986-3.602.997-1.496 1.585-3.322 2.231-4.996a44.644 44.644 0 0 0 1.18-3.53 44.647 44.647 0 0 0 1.626-8.898 45.28 45.28 0 0 0 .148-4.065c-.017-1.523-.305-3.041-.525-4.542-.224-1.563-.759-3.144-1.315-4.61-.62-1.63-1.383-3.44-2.654-4.701-.695-.69-1.472-1.255-2.249-1.848a8.86 8.86 0 0 0-1.922-.9 8.467 8.467 0 0 0-1.396-.507c-1.387-.432-2.944-.534-4.367-.695a31.01 31.01 0 0 0-3.425-.17l-.176.001"/><path d="M235.375 198.098c-1.393.099-2.612.492-3.618 1.505a5.16 5.16 0 0 0-1.499 3.63c0 2.658 2.332 5.324 5.117 5.137 1.518-.102 3.024-.14 4.536-.02 1.073.225 2.1.548 3.127.935 1.134.534 2.23 1.118 3.274 1.811.436.395.839.807 1.226 1.25.497.73.94 1.47 1.337 2.259.619 1.75 1.044 3.53 1.344 5.36.086.989.122 1.961.059 2.95a16.262 16.262 0 0 1-.53 2.057c-.193.373-.401.733-.628 1.09-.168.183-.34.358-.523.53a15.33 15.33 0 0 1-1.373.744c-1.594.606-3.229 1.093-4.863 1.577a40.53 40.53 0 0 1-4.034.991c-.229.01-.459.01-.688.001-1.52-.32-2.97-.838-4.453-1.336-2.937-.982-6.194 1.108-6.986 3.984-.827 3.018.996 6.15 3.97 7.012 1.143.33 2.285.656 3.443.942 1.748.429 3.582.584 5.37.441 1.224-.097 2.417-.366 3.605-.642 2.376-.558 4.734-1.403 7.008-2.264 2.732-1.037 5.388-2.318 7.325-4.578 1.805-2.108 2.949-4.577 3.595-7.27.871-3.627.44-7.33-.299-10.933-.227-1.112-.547-2.188-.903-3.265-.48-1.446-1.116-2.952-1.966-4.224-.842-1.268-1.758-2.51-2.822-3.604-.88-.907-1.944-1.653-2.985-2.363-.717-.487-1.527-.884-2.314-1.242-1.376-.63-2.769-1.228-4.219-1.656-2.253-.67-4.564-.907-6.886-.907-.915 0-1.831.037-2.747.098"/></g></symbol><symbol id="news-picture-frame"><path fill="none" id="canvas_background" d="M-1-1h582v402H-1z"/><title>Layer 1</title><g id="square_0002"><path id="Fill-193" d="M567.321 532.026c-1.262-19.719-.138-40.417-.61-60.157-.48-20.328-2.313-39.56-3.287-59.845-1.079-22.321-.275-44.469 2.687-66.61 2.962-22.14.59-17.435.343-26.457-.099-3.35 1.15-6.684 4.873-8.11 3.336-1.28 10.585.54 12.574 3.204 2.37 3.197 3.16 6.435.099 9.853-1.284 1.432 2.672-17.886-2.116 5.369-4.788 23.254-7.771 46.772-7.863 70.442l2.63 59.212c1.947 35.84 4.14 71.674 6.002 107.528.536 10.274.345 20.597.345 30.893 0 9.763-1.453 11.18-11.537 10.51-13.568-.9-27.115-2.159-40.676-3.21-34.5-2.692-69.005-5.979-103.666-4.982-21.262.616-42.545 2.262-63.793 1.487-18.808-.685-37.39.678-56.015 2.45-13.865 1.307-27.757 1.494-41.664 1.39-5.099-.034-10.19-.027-15.183 1.44-2.123.622-4.485.774-6.728.691-5.959-.235-9.443-3.46-9.464-9.41-.091-26.99-2.926-53.919-1.516-80.958 1.178-22.563-1.474-45.001-3.406-67.453-2.786-32.415-5.952-64.782-10.747-96.99-.903-6.047-.868-12.219-1.658-18.287-.79-6.054-1.735-12.073-3.68-17.968-3.527-10.683.338-15.464 11.416-13.043 16.312 3.564 32.715 3.404 49.132 2.796 13.3-.492 26.566-1.869 39.816-3.17 21.495-2.11 43.018-2.248 64.59-1.764 18.717.402 37.461.07 56.17.713 19.866.685 39.676-.104 59.506-.54 7.637-.166 15.282-1.058 22.877-1.978 12.757-1.55 25.48-1.26 38.222-.139 5.593.484 10.642 3.799 10.649 6.767.007 2.906-5.698 6.31-11.29 5.251-19.584-3.715-38.97-.103-58.47.388-19.223.477-38.518.664-57.784-.166-14.732-.637-5.607.318-44.245-.817-38.638-1.134-77.08 1.633-115.513 5.217-12.13 1.135-24.344 1.17-36.551.72-10.176-.367-10.733.387-10.5 10.074.232 9.686-3.068 23.524-1.82 36.255 1.248 12.73 6.656 53.13 9.201 79.727 3.526 36.885 5.43 73.853 5.07 110.925-.105 10.281 4.903 22.577 5.693 32.844.564 7.28.797 7.037 8.06 7.625 7.264.588 43.06-.034 64.549-1.432 15.86-1.038 31.706-.132 47.552-.18 15.296-.055 30.599-.726 45.88-1.536 33.555-1.778 66.911 1.176 100.31 3.383 13.59.9 19.78-.073 40.817 1.779 21.037 1.85 10.858 8.593 15.979-9.48 5.121-18.072-2.667-36.151-3.26-54.251"/></g></symbol><symbol id="square" stroke="#000" fill="none" fill-rule="evenodd"><path d="M355.321 234.026c-1.262-19.719-3.138-39.417-3.61-59.157-.48-20.328-2.313-40.56-3.287-60.845-1.079-22.321-.275-44.469 2.687-66.61 1.17-8.8 3.59-17.435 3.343-26.457-.099-3.35 1.15-6.684 4.873-8.11 3.336-1.28 10.585.54 12.574 3.204 2.37 3.197 3.16 6.435.099 9.853-1.284 1.432-1.707 3.41-2.116 5.369-4.788 23.254-7.771 46.772-7.863 70.442-.078 19.733 1.558 39.48 2.63 59.212 1.947 35.84 4.14 71.674 6.002 107.528.536 10.274.345 20.597.345 30.893 0 9.763-1.453 11.18-11.537 10.51-13.568-.9-27.115-2.159-40.676-3.21-34.5-2.692-69.005-5.979-103.666-4.982-21.262.616-42.545 2.262-63.793 1.487-18.808-.685-37.39.678-56.015 2.45-13.865 1.307-27.757 1.494-41.664 1.39-5.099-.034-10.19-.027-15.183 1.44-2.123.622-4.485.774-6.728.691-5.959-.235-9.443-3.46-9.464-9.41-.091-26.99-2.926-53.919-1.516-80.958 1.178-22.563-1.474-45.001-3.406-67.453-2.786-32.415-5.952-64.782-10.747-96.99-.903-6.047-.868-12.219-1.658-18.287-.79-6.054-1.735-12.073-3.68-17.968C-2.263 7.375 1.602 2.594 12.68 5.015 28.993 8.58 45.396 8.42 61.813 7.811c13.3-.492 26.566-1.869 39.816-3.17 21.495-2.11 43.018-2.248 64.59-1.764 18.717.402 37.461.07 56.17.713 19.866.685 39.676-.104 59.506-.54 7.637-.166 15.282-1.058 22.877-1.978 12.757-1.55 25.48-1.26 38.222-.139 5.593.484 10.642 3.799 10.649 6.767.007 2.906-5.698 6.31-11.29 5.251-19.584-3.715-38.97-.103-58.47.388-19.223.477-38.518.664-57.784-.166-14.732-.637-29.499-.388-44.245-.817-38.638-1.134-77.08 1.633-115.513 5.217-12.13 1.135-24.344 1.17-36.551.72-10.176-.367-10.733.387-10.5 10.074.302 12.814 1.932 25.524 3.18 38.255 2.609 26.582 5.656 53.13 8.201 79.727 3.526 36.885 5.43 73.853 5.07 110.925-.105 10.281.903 20.577 1.693 30.844.564 7.28.797 7.037 8.06 7.625 21.573 1.73 43.06-.034 64.549-1.432 15.86-1.038 31.706-.132 47.552-.18 15.296-.055 30.599-.726 45.88-1.536 33.555-1.778 66.911 1.176 100.31 3.383 13.59.9 27.186 1.986 40.817 1.779 9.041-.146 9.429-.74 9.979-9.48 1.121-18.072 1.333-36.151.74-54.251" transform="translate(213 298)" fill="#31f85b"/></symbol><symbol id="arrow" fill="none" fill-rule="evenodd"><g fill-rule="nonzero" transform="translate(441 685)" id="logo-footer"><path d="M110.813 8.257c.092.306-.003.562-.24.837-.025.03-.048.056-.09.101-.073.078-.095.105-.088.092-.237.486-.446 1.11-.614 1.822-.457 1.936.46 3.559 2.356 4.108 2.058.597 4.471-.53 5.364-2.475 1.056-2.3.86-3.865-.669-5.065-1.871-1.468-4.474-1.407-5.76.163l-.277.338c0 .023.01.05.018.079zm-.707-1.988c.318-.382.85-.77 1.314-.96.96-.395 2.26-.403 3.714-.07 2.799.64 4.975 2.982 4.862 5.418-.235 5.093-6.57 8.368-10.264 4.92-1.788-1.67-2.178-3.775-1.233-6.292.125-.331.352-.795.55-1.1.221-.338.432-.544.702-.63a.942.942 0 0 1 .082-.022c-.185-.363-.085-.832.273-1.264z" id="Fill-4" fill="#000"/><path d="M116 2.364c.035-.13.077-.324.142-.513.138-.409.237-.817.235-1.25 0-.19-.12-.491.247-.56.314-.059.648-.091.889.166.142.151.284.311.377.488.326.623-.113 1.84-.776 2.196-.502.269-1.101.02-1.114-.527" id="Fill-103" fill="#000"/><path d="M113.597 1.3c-.05.305-.112.61-.145.917-.043.4-.383.577-.728.721-.297.125-.578.073-.65-.271-.166-.783-.014-1.563.08-2.338.043-.357.62-.435 1.013-.177.346.229.452.524.43 1.148" id="Fill-107" fill="#000"/><path d="M112.19 11.682c-1.557.939-3.598 2.286-5.139 3.242-.447.278-.79.415-1.203.724-.395.296-.845.493-1.175.226-.339-.273-.705-.4-.42-.87.254-.42.552-.451 1.09-.662 1.065-.416 2.69-1.538 3.634-2.107.29-.175.804-.544 1.055-.75.659-.545.514-.7-.228-1.221-1.31-.921-2.926-1.95-4.245-2.862-.338-.234-.685-.46-1.005-.706-.872-.673-.717-1.4.484-1.673.276-.063.481.006.626.19 1.211 1.527 3.395 2.72 5.106 3.846.584.384 1.033.799 1.854.97.443.092.323.468.37.91.063.282-.391.495-.803.743z" id="chevron" fill="#000" transform="rotate(-2 108.5 10.5)"/><path d="M4.806 7.713H2.787V12.9h-.768V7.713H0v-.614h4.806v.614zm5.17 2.527h-3.11v2.66h-.77V7.1h.77v2.527h3.11V7.1h.77v5.802h-.77v-2.66zm2.68-3.14h3.529v.613h-2.76V9.61h2.528v.614h-2.528v2.063h2.806v.614h-3.574V7.099zm8.111 0a4.78 4.78 0 0 1 .394-.038c.145-.008.296-.014.454-.016l.463-.009c.15-.002.291-.004.42-.004.52 0 .969.072 1.348.216.38.143.693.344.94.6.247.257.43.565.55.924.121.36.181.755.181 1.186 0 .392-.057.769-.17 1.13a2.626 2.626 0 0 1-.543.962 2.648 2.648 0 0 1-.962.671c-.396.169-.874.253-1.436.253a22.808 22.808 0 0 1-.87-.02 43.166 43.166 0 0 0-.463-.021 2.511 2.511 0 0 1-.306-.025v-5.81zm1.75.546h-.263c-.096 0-.19.003-.283.009-.092.005-.177.01-.254.016a3.462 3.462 0 0 0-.181.017v4.64c.03.006.09.01.176.013a126.23 126.23 0 0 0 .713.02c.432 0 .795-.065 1.088-.198.293-.133.528-.31.704-.535.175-.223.3-.48.375-.77.074-.29.11-.59.11-.9 0-.27-.033-.542-.101-.816a2.032 2.032 0 0 0-.352-.741 1.876 1.876 0 0 0-.671-.543c-.281-.141-.635-.212-1.06-.212zM26.892 10c0-.967.229-1.709.685-2.225.457-.517 1.108-.775 1.954-.775.457 0 .852.072 1.185.215.334.144.61.347.829.61.22.262.381.577.486.944.105.368.157.778.157 1.231 0 .967-.23 1.709-.69 2.225-.46.517-1.115.775-1.967.775-.45 0-.841-.072-1.171-.215a2.196 2.196 0 0 1-.824-.61 2.542 2.542 0 0 1-.486-.944A4.477 4.477 0 0 1 26.892 10zm.815 0c0 .32.035.624.106.912.071.287.181.54.33.758.147.218.337.392.569.522.231.13.504.195.819.195.574 0 1.025-.195 1.352-.585.327-.389.49-.99.49-1.802 0-.315-.035-.617-.106-.907a2.273 2.273 0 0 0-.333-.763 1.704 1.704 0 0 0-.574-.522 1.668 1.668 0 0 0-.829-.195c-.568 0-1.014.195-1.338.585-.324.389-.486.99-.486 1.802zm5.856 0c0-.967.229-1.709.685-2.225.457-.517 1.108-.775 1.954-.775.457 0 .852.072 1.185.215.334.144.61.347.829.61.22.262.381.577.486.944.105.368.157.778.157 1.231 0 .967-.23 1.709-.69 2.225-.46.517-1.115.775-1.967.775-.45 0-.841-.072-1.171-.215a2.196 2.196 0 0 1-.824-.61 2.542 2.542 0 0 1-.486-.944A4.477 4.477 0 0 1 33.563 10zm.815 0c0 .32.035.624.106.912.071.287.181.54.33.758.147.218.337.392.569.522.231.13.504.195.82.195.573 0 1.024-.195 1.35-.585.328-.389.492-.99.492-1.802 0-.315-.036-.617-.107-.907a2.273 2.273 0 0 0-.333-.763 1.704 1.704 0 0 0-.574-.522 1.668 1.668 0 0 0-.829-.195c-.568 0-1.014.195-1.338.585-.324.389-.486.99-.486 1.802zm6.125-2.9a4.78 4.78 0 0 1 .393-.038c.145-.008.297-.014.454-.016l.463-.009c.151-.002.292-.004.421-.004.519 0 .968.072 1.347.216.38.143.693.344.94.6.247.257.43.565.551.924.12.36.18.755.18 1.186 0 .392-.056.769-.17 1.13a2.626 2.626 0 0 1-.542.962 2.648 2.648 0 0 1-.963.671c-.395.169-.874.253-1.435.253a22.808 22.808 0 0 1-.87-.02 43.167 43.167 0 0 0-.464-.021 2.511 2.511 0 0 1-.305-.025v-5.81zm1.75.546h-.264c-.096 0-.19.003-.283.009-.092.005-.177.01-.254.016a3.462 3.462 0 0 0-.18.017v4.64c.03.006.089.01.175.013a126.23 126.23 0 0 0 .713.02c.432 0 .795-.065 1.088-.198.293-.133.528-.31.704-.535.176-.223.3-.48.375-.77.074-.29.11-.59.11-.9 0-.27-.033-.542-.1-.816a2.032 2.032 0 0 0-.353-.741 1.876 1.876 0 0 0-.671-.543c-.281-.141-.634-.212-1.06-.212zm8.476 5.255h-3.833V7.099h.768v5.188h3.065v.614zm1.292-5.802h3.527v.614H52.79V9.61h2.528v.614h-2.528v2.063h2.806v.614H52.02V7.099zm11.944 5.802H60.13V7.099h.769v5.188h3.065v.614zm1.467-5.802h.768v5.802h-.768V7.099zm6.764 1.326a1.347 1.347 0 0 1-.676 1.152 1.877 1.877 0 0 1-.547.216v.033c.185.028.363.075.533.14.17.067.32.158.449.274.13.116.234.257.315.423.08.166.12.362.12.588 0 .299-.07.557-.208.775a1.676 1.676 0 0 1-.547.535c-.225.138-.483.24-.773.306-.29.067-.586.1-.889.1h-.37c-.142 0-.29-.004-.445-.013-.154-.008-.308-.019-.462-.033a2.935 2.935 0 0 1-.408-.062V7.15c.229-.033.494-.06.796-.083.303-.022.633-.033.991-.033.24 0 .486.018.736.054.25.036.477.105.68.207.205.102.373.245.505.427.133.182.2.417.2.704zm-2.149 3.945c.198 0 .39-.02.574-.062a1.51 1.51 0 0 0 .491-.199c.142-.091.255-.203.338-.336a.87.87 0 0 0 .125-.472c0-.226-.05-.409-.153-.547a1.034 1.034 0 0 0-.398-.323 1.87 1.87 0 0 0-.55-.158 4.543 4.543 0 0 0-.612-.041h-.805v2.08c.043.011.105.02.185.025l.26.017a9.088 9.088 0 0 0 .545.016zm-.509-2.718c.105 0 .232-.003.38-.008.148-.006.271-.014.37-.025.148-.044.287-.098.417-.162.13-.063.245-.138.347-.224a.97.97 0 0 0 .24-.298.79.79 0 0 0 .089-.369.814.814 0 0 0-.116-.451.86.86 0 0 0-.31-.286 1.446 1.446 0 0 0-.445-.154 2.833 2.833 0 0 0-.509-.045c-.204 0-.39.004-.56.012-.17.009-.298.021-.384.038v1.972h.481zm4.495-2.495a11.694 11.694 0 0 1 1.648-.124c.284 0 .554.028.81.083.257.055.482.146.676.274.195.127.35.292.468.497.117.204.176.453.176.746 0 .453-.139.82-.417 1.102a2.07 2.07 0 0 1-1.055.563l.444.307 1.611 2.296h-.898l-1.787-2.503-.907-.125v2.628h-.769V7.157zm1.667.473h-.25c-.087 0-.17.003-.25.008l-.227.017a1.044 1.044 0 0 0-.171.025v2.138h.722c.426 0 .778-.094 1.056-.282.277-.188.416-.48.416-.879a.924.924 0 0 0-.342-.737c-.229-.193-.547-.29-.954-.29zm7.023 3.663h-2.39l-.647 1.608h-.76l2.454-5.893h.352l2.463 5.893h-.806l-.666-1.608zm-2.14-.597h1.908l-.722-1.765-.231-.879h-.01l-.231.896-.713 1.748zm4.81-3.539a11.694 11.694 0 0 1 1.648-.124c.285 0 .555.028.811.083.256.055.482.146.676.274.194.127.35.292.468.497.117.204.176.453.176.746 0 .453-.14.82-.417 1.102a2.07 2.07 0 0 1-1.056.563l.445.307 1.61 2.296h-.897l-1.787-2.503-.908-.125v2.628h-.768V7.157zm1.667.473h-.25c-.086 0-.17.003-.25.008l-.226.017a1.044 1.044 0 0 0-.172.025v2.138h.723c.425 0 .777-.094 1.055-.282.278-.188.417-.48.417-.879a.924.924 0 0 0-.343-.737c-.228-.193-.546-.29-.954-.29zm5.051 2.967l-2.139-3.498h.898l1.519 2.536.157.506h.01l.166-.522 1.454-2.52H95l-2.12 3.49V12.9h-.769v-2.304z" id="the-Doodle-Library" fill="#666" opacity=".595"/></g><g id="arrow_s" transform="translate(218 300)" fill="#000"><path d="M148.79 224.765c19.71-54.554 21.868-109.342 26.473-163.827 2.506-29.597 5.539-59.194 9.676-88.615 2.556-18.152 16.22-22.95 31.127-13.031 7.747 5.15 5.987 12.14 5.26 18.925-3.46 31.869-7.885 63.64-10.61 95.566-3.292 38.615-7.608 77.239-7.747 121.737 14.877-12.855 25.737-22.176 35.373-33.249 15.176-17.456 29.526-18.74 47.864-5.365 8.831 6.432 9.766 13.844 1.134 21.138-8.364 7.069-18.468 12.14-26.9 19.13-16.47 13.649-30.59 29.559-43.648 46.408-9.637 12.435-19.044 25.123-29.725 36.637-19.9 21.432-48.809 15.851-60.613-10.838-11.247-25.407-27.994-47.24-47.297-67.076-6.116-6.276-9.547-12.248-7.558-20.717 2.218-9.438 8.095-15.117 18.14-15.312 17.303-.324 33.314 11.7 38.475 28.441 3.47 11.289 8.752 21.383 20.576 30.048" id="Fill-67" transform="rotate(-95 182.189 123.796)"/></g></symbol><symbol id="btToYT"><defs><style>.cls-1{fill:#32bea6}.cls-2{fill:#fff}</style></defs><circle class="cls-1" cx="10" cy="10" r="10"/><path class="cls-2" d="M15.76 9.87L7.26 5v9.74l8.5-4.87z"/></symbol><symbol id="navigation"><path d="M6169 11553l-225-1237-115-17c-588-85-1159-309-1654-647-821-561-1411-1433-1624-2402-27-124-61-326-61-367 0-18-2-33-5-33s-550-99-1216-220S48 6409 34 6408c-13-1-24-5-24-8 0-4 557-108 1237-231l1237-225 17-115c157-1082 770-2063 1674-2681 411-281 897-492 1375-597 124-27 326-61 368-61 17 0 32-2 32-5s99-550 220-1216S6391 48 6392 34c1-13 5-24 8-24 4 0 108 557 231 1237l225 1237 115 17c588 85 1159 309 1654 647 821 561 1411 1433 1624 2402 27 124 61 326 61 368 0 17 2 32 5 32s550 99 1216 220 1221 221 1235 222c13 1 24 5 24 8 0 4-557 108-1237 231l-1237 225-17 115c-157 1082-770 2063-1674 2681-411 281-897 492-1375 597-124 27-326 61-367 61-18 0-33 2-33 5s-99 550-220 1216-221 1221-222 1235c-1 13-5 24-8 24-4 0-108-557-231-1237zm-419-2293c0-15-251-1394-255-1398-1-1-240 112-531 251-291 140-530 253-532 252s110-238 248-526 252-528 253-533-302-64-673-132c-371-67-687-125-702-128-19-4-28-1-28 8 0 7 15 69 34 138 270 984 1070 1781 2056 2048 119 32 130 34 130 20zm1409-15c289-73 608-218 878-398 582-389 1017-991 1200-1659 19-71 33-132 30-135-5-4-1398 245-1405 251-1 2 112 241 251 532 140 291 253 530 252 532s-238-110-526-248-528-252-533-253-64 302-132 673c-67 371-125 687-128 703-3 15-1 27 5 27s54-11 108-25zm2111-3498c0-27-70-268-106-363-311-834-969-1478-1806-1769-114-40-298-89-305-81-5 4 245 1397 252 1404 1 1 240-112 531-251 291-140 530-253 532-252s-110 238-248 526-252 528-253 533c-1 6 1299 253 1396 265 4 1 7-5 7-12zm-5027-123c380-69 693-127 695-128 1-2-112-241-251-532-140-291-253-530-252-532s238 110 526 248 528 252 533 253c9 2 268-1394 261-1402-7-7-189 42-301 80-921 315-1636 1071-1890 1997-38 139-38 142-24 142 6 0 322-57 703-126z" transform="matrix(.1 0 0 -.1 0 1280)" fill="#009688"/></symbol><symbol id="lenkrad"><g transform="matrix(7.1 0 0 7.1 0 -100)"><path id="XMLID_1_" d="M151.792 78.739c-1.302-3.246-6.215-2.844-8.843-1.748-1.497.625-2.589 1.471-3.851 2.459-1.49 1.168-2.425 1.676-4.421 2.354-.007-.455-.398-.899-.428-1.355-2.412.768-2.87 1.616-3.92-.806a48.91 48.91 0 0 0-2.392-4.782 58.84 58.84 0 0 0-6.382-9.104c-2.424-2.831-5.164-5.296-8.065-7.621a46.268 46.268 0 0 0-4.057-2.932c-2.495-1.589-1.786-1.646-.5-4.279-.473-.071-.881-.57-1.354-.642.787-1.542 1.208-2.919 2.637-3.815 1.147-.719 2.094-1.789 2.818-2.924 1.47-2.305 3.151-6.985.678-9.235-2.908-2.644-6.421 1.384-7.855 3.732-.874 1.429-1.159 3.208-1.307 4.847-.191 2.102-.472 3.116-1.463 5.185-.35-.342-1.006-.37-1.355-.713-1.116 2.285-.828 3.333-3.302 2.344a42.072 42.072 0 0 0-5.102-1.649 62.978 62.978 0 0 0-10.921-1.836c-3.684-.287-7.391-.147-11.054.313-1.736.218-3.506.493-5.206.917-2.695.673-2.277-.533-3.137-3.013-.369.278-.972.237-1.355.499-.53-1.561-1.398-2.974-.895-4.569.509-1.614.06-3.54-.323-5.136-.611-2.548-3.512-6.847-6.627-5.842-3.217 1.039-2.72 5.972-1.926 8.416.965 2.969 3.479 4.462 4.444 7.297.433 1.271.752 1.301-.527 1.773-.701.258.147 1.658.34 2.248.708 2.17-1.389 2.192-3.193 3.066-3.187 1.542-6.371 3.52-9.126 5.746-3.054 2.467-5.903 5.166-8.431 8.174-2.247 2.674-4.191 7.141-6.611 9.206 1.644-1.8-2.337-3.666-3.238-2.044-.729 1.313-3.566-1.884-4.179-2.52-2.53-2.622-5.782-5.108-9.734-4.315-5.413 1.085-2.328 6.784.867 8.564 1.597.889 3.243 1.557 5.086 1.669 2.35.143 3.264.348 5.563 1.497-1.591 1.855 2.872 4.039 3.494 1.712-2.456 6.188-4.444 12.596-4.734 19.305-.135 3.112-.325 6.289.124 9.389.268 1.849 2.248 8.652 1.543 9.815.001-.454-.302-.985-.427-1.427l-3.636 1.212c.285.389.214 1.038.499 1.427-2.02.686-3.03.819-4.921.783-1.766-.034-3.354-.074-5.063.5-2.657.892-8.899 6.066-3.958 8.343 3.285 1.514 7.488.489 10.269-1.676 1.812-1.41 2.138-2.117 4.536-2.932 1.325-.451.743 1.34 1.407 1.119l3.435-1.146c-.151-.437-.229-1.058-.499-1.427 1.676 1.329 3.129 6.363 4.366 8.549 1.594 2.817 3.499 5.385 5.587 7.848 2.225 2.624 4.637 5.172 7.362 7.292 2.283 1.775 6.191 3.531 7.858 5.549-1.813-1.651-3.688 2.435-2.045 3.257 1.326.663-1.897 3.627-2.52 4.23-2.557 2.479-5.612 6.325-4.207 10.269 1.683 4.723 6.782 1.61 8.457-1.402 1.098-1.975 1.358-3.681 1.668-5.873.189-1.339.454-6.132 2.783-4.135.674-1.408 2.657-3.618.355-4.137 8.895 3.73 18.415 5.907 28.109 5.03a60.287 60.287 0 0 0 7.06-1.043c1.8-.381 1.874-.765 2.435.954l.629 1.925c.189.579 1.225-.496 1.489-.232 1.619 1.611.815 4.227.732 6.083-.1 2.198.631 4.205 1.598 6.135 2.214 4.419 7.688 4.299 8.082-1.021.139-1.879-.41-3.695-1.177-5.386-.801-1.768-2.259-2.454-3.244-3.885-.599-.87-.804-2.365-1.146-3.369-.207-.608 1.558-.106 1.064-1.585-.53-1.589-1.403-2.293.224-2.997a55.94 55.94 0 0 0 3.461-1.63c4.317-2.232 8.35-4.867 12.014-8.068a54.11 54.11 0 0 0 7.06-7.454c1.009-1.294 2.026-2.616 2.899-4.007 1.401-2.229 1.822-1.236 4.088-.129.07-.473.571-.881.644-1.354 1.571.753 2.982 1.129 3.885 2.567.739 1.176 1.761 2.027 2.888 2.816 2.181 1.526 7.117 3.062 9.271.676 2.637-2.919-1.42-6.369-3.733-7.781-2.795-1.706-5.94-.771-8.711-2.126-1.227-.6-1.439-.392-.844-1.649.335-.708-1.465-1.167-2.053-1.46-1.536-.768.397-3.334.864-4.738 1.305-3.92 2.089-7.945 2.601-12.034.432-3.448.639-7.389.153-10.84-.274-1.945-.517-3.887-.908-5.812-.69-3.394-.758-3.078 2.504-4.189-.277-.368-.223-.985-.499-1.355 1.623-.552 2.915-1.258 4.563-.928 1.484.298 3.031.239 4.494-.142 2.812-.728 7.39-3.295 6.418-6.842m-55.338-5.992c6.59 4.277 11.595 9.718 14.618 17.045l-13.54 4.545-6.453 2.166c-.768.258-1.523-1.74-2.042-2.361-.521-.624-2.307-1.729-1.952-2.449l3.023-6.115 6.346-12.831m-25.317-4.135c7.003-1.642 14.168-.604 20.824 1.854l-6.392 12.832-3.045 6.114c-.346.696-2.186-.131-2.97-.189-.802-.06-2.8.509-3.061-.261l-2.189-6.453-4.593-13.541c.434-.108.985-.383 1.426-.356m-22.035 15.19c3.896-5.863 9.339-10.515 15.832-13.265l4.545 13.588 2.166 6.476c.249.743-1.549 1.454-2.146 1.971-.59.511-1.504 2.17-2.232 1.809l-6.092-3.023-12.783-6.344c.218-.374.399-.914.71-1.212m-5.206 24.818c-.856-6.712-.184-12.711 2.211-19.042l12.012 5.961 6.231 3.093c1.557.772.666 1.525.511 3.141-.112 1.169.511 2.54-.699 2.945l-6.972 2.34-12.723 4.27-.571-2.708m16.117 24.316c-6.355-4.367-10.847-9.711-13.978-16.759l13.494-4.544 6.431-2.167c.744-.25 1.419 1.481 1.897 2.076.49.61 2.003 1.625 1.663 2.308l-3.068 6.161c-2.147 4.307-4.293 8.616-6.439 12.925m25.102 4.493c-6.59 1.564-14.443.618-20.538-2.283 2.115-4.246 4.229-8.491 6.345-12.736l3.023-6.07c.351-.705 2.064.165 2.826.264.792.103 2.651-.316 2.919.475l2.188 6.475 4.592 13.588c-.42.089-.929.313-1.355.287m22.606-14.833c-4.566 5.871-9.48 10.139-16.401 13.049l-4.546-13.494-2.167-6.43c-.252-.749 1.74-1.478 2.361-1.968.628-.496 1.646-2.099 2.381-1.736l6.159 3.046 12.926 6.39c-.221.356-.408.861-.713 1.143m5.847-16.543c-.583 3.792-1.421 7.32-2.782 10.909l-12.056-5.961-6.254-3.092c-1.645-.813-.501-1.756-.302-3.425.145-1.215-.571-2.804.702-3.234l6.997-2.364 12.768-4.315c.756 3.874 1.027 7.535.927 11.482" fill="#009688"/></g></symbol></defs></svg>